<svg width="137" height="201" viewBox="0 0 137 201" fill="none" xmlns="http://www.w3.org/2000/svg">
<path fill-rule="evenodd" clip-rule="evenodd" d="M12.6286 198.017C13.5321 199.39 15.3092 199.179 16.0723 198.116C24.7606 200.141 33.6679 199.343 42.477 198.846C67.3004 197.836 92.2645 201.003 116.988 197.689C119.611 197.165 122.663 197.416 124.809 195.596C128.241 191.572 127.502 185.463 126.955 180.562C122.572 152.936 116.342 125.057 113.234 97.254C113.061 94.6051 114.151 91.3147 115.13 88.8247C115.371 88.3616 116.898 87.9083 117.69 87.3738C120.121 85.6276 119.727 82.4986 117.619 80.6624C110.794 75.8496 101.294 77.5317 94.0536 79.3071C92.6659 74.0937 91.1063 70.6654 88.4647 70.3256C83.437 69.6792 71.2397 67.7043 67.4821 70.3256C65.6848 71.5794 64.5315 75.998 63.2379 78.1506C53.8021 77.9835 34.6517 65.3547 30.7147 79.5756C27.5159 79.7962 24.3477 82.5902 24.9596 85.9431C20.8111 89.6098 24.0831 95.1087 24.0257 99.6733C23.4804 109.358 18.2419 118.019 16.0625 127.375C11.0809 145.52 5.44253 178.526 11.6212 196.237C11.4882 196.168 11.1978 196.272 11.3859 196.42C12.0855 196.617 12.1765 197.499 12.6286 198.017Z" fill="#FFFEFC"/>
<path fill-rule="evenodd" clip-rule="evenodd" d="M121.109 193.403C119.95 184.096 119.144 172.861 119.135 163.477C119.134 162.593 120.505 162.594 120.506 163.477C120.516 172.861 121.321 184.096 122.48 193.403C122.589 194.278 121.217 194.267 121.109 193.403ZM112.525 135.697C110.734 136.793 108.383 136.033 106.611 135.307C105.804 134.977 106.159 133.651 106.975 133.985C108.324 134.537 110.295 135.35 111.718 134.579C113.139 133.811 113.203 131.697 113.214 130.302C113.22 129.418 114.591 129.418 114.584 130.302C114.57 132.2 114.316 134.6 112.525 135.697ZM109.21 178.286C107.404 177.359 105.862 176.093 104.622 174.486C104.083 173.787 105.274 173.105 105.806 173.793C106.897 175.209 108.32 176.291 109.902 177.102C110.688 177.505 109.994 178.688 109.21 178.286ZM100.527 130.427C97.4276 142.853 95.3472 155.501 94.3277 168.268C94.1201 170.86 93.9749 173.449 93.8922 176.038C93.8103 176.714 93.7316 177.391 93.6578 178.068C93.3788 180.629 93.1647 183.231 93.1833 185.809C93.1915 186.966 93.228 188.118 93.3066 189.271C93.1696 188.886 93.0431 188.498 92.919 188.113C92.6675 187.322 92.5013 186.503 92.2442 185.718C92.0317 185.068 91.7575 184.446 91.5021 183.817V183.815C91.5791 181.24 91.4047 178.638 91.3155 176.075C91.2003 172.753 91.0584 169.434 90.9846 166.11C90.8378 159.463 90.9108 152.81 91.1509 146.166C91.6326 132.779 92.8492 119.455 94.0763 106.122C94.417 102.414 94.7836 98.7082 95.0374 94.9936C95.2929 91.2393 95.3951 87.4784 95.4243 83.7144C95.4259 83.4435 95.0147 83.3721 94.9393 83.6341C94.8728 82.7411 94.7543 81.8498 94.5573 80.9868C97.5135 82.8725 100.63 84.5027 103.685 86.2173C105.294 87.1208 106.897 88.0389 108.555 88.8483C109.467 89.2936 110.386 89.704 111.326 90.0908C112.299 90.4923 113.229 91.0438 114.3 90.7648C114.393 90.7405 114.48 90.7064 114.564 90.6618C114.443 90.8929 114.321 91.1233 114.204 91.3561C113.8 92.1598 113.414 92.9676 113.041 93.7819C112.941 93.8549 112.854 93.9563 112.786 94.0885C112.604 94.4429 112.427 94.8014 112.256 95.1647C112.222 95.1323 112.188 95.0999 112.153 95.0674C112.009 94.932 111.811 95.1355 111.937 95.2832C111.996 95.3497 112.052 95.4154 112.108 95.4819C110.992 97.8866 110.083 100.415 109.148 102.884C107.998 105.918 106.908 108.974 105.882 112.051C103.858 118.104 102.072 124.235 100.527 130.427ZM56.2118 175.522C50.4987 178.583 45.1601 182.24 40.0256 186.185C39.3256 186.723 38.6436 185.531 39.3336 185.001C44.4682 181.056 49.8069 177.398 55.52 174.338C56.2977 173.921 56.9896 175.105 56.2118 175.522ZM36.916 139.676C36.6191 139.654 36.3305 139.481 36.2551 139.172C35.7923 137.277 35.4299 135.212 35.8603 133.279C36.0522 132.416 37.3735 132.784 37.1821 133.643C36.8427 135.168 37.1124 136.816 37.4648 138.336C42.4474 138.554 47.3633 136.766 52.1303 135.565C52.9875 135.348 53.3496 136.672 52.4948 136.887C47.438 138.161 42.2074 140.068 36.916 139.676ZM136.11 190.236C136.115 190.225 136.119 190.211 136.123 190.199C136.416 189.311 136.423 188.279 136.455 187.348C136.512 185.693 136.452 184.034 136.303 182.382C135.988 178.908 135.309 175.49 134.499 172.101C132.893 165.388 130.625 158.858 129.393 152.054C126.975 138.699 127.549 124.794 122.804 111.912C120.832 106.558 118.015 101.41 114.187 97.1551C114.466 96.3051 114.739 95.4527 115.005 94.5978C115.469 93.1095 115.943 91.5734 116.229 90.0413C116.237 90 116.245 89.957 116.25 89.9148C117.88 89.2117 119.362 87.8864 119.615 86.1248C119.725 85.3632 119.598 84.5197 119.269 83.7849C119.941 83.1645 120.373 82.3583 120.27 81.2788C120.078 79.2455 117.705 78.7224 116.053 78.325C114.175 77.874 112.227 77.7491 110.306 77.9616C109.336 78.0679 108.377 78.2463 107.439 78.5139C106.626 78.7451 105.74 78.9835 105.087 79.5423C105.01 79.6072 105.073 79.7338 105.166 79.7338C106.487 79.7289 107.802 79.2439 109.137 79.1806C110.536 79.1149 111.931 79.2301 113.301 79.518C114.641 79.7995 115.978 80.2107 117.196 80.8465C117.538 81.0266 118.04 81.1482 117.638 81.5116C117.344 81.7776 116.764 81.7995 116.386 81.8392C115.547 81.9268 114.825 82.4167 114.718 83.3113C114.624 84.1021 115.095 84.9966 115.935 85.1751C115.981 85.1856 116.024 85.197 116.061 85.2124C116.084 85.2554 116.118 85.291 116.115 85.2335C116.115 85.2335 116.117 85.231 116.117 85.2335C116.137 85.3584 116.144 85.4078 116.144 85.4168C116.138 85.4062 116.13 85.3632 116.123 85.3292C116.129 85.36 116.138 85.4095 116.152 85.4833C116.134 85.403 116.149 85.6001 116.134 85.6309C115.688 86.4533 114.37 86.6852 113.603 87.0397C113.454 87.1086 113.325 87.1889 113.215 87.2797C113.034 87.2165 112.849 87.1532 112.662 87.0827C111.742 86.738 110.824 86.4038 109.892 86.0932C108.092 85.4922 106.27 84.9553 104.472 84.3519C101.065 83.2107 97.7723 81.7687 94.4291 80.4629C94.3229 80.0687 94.1996 79.6827 94.0536 79.3071C94.0244 79.2285 93.8841 79.2025 93.8687 79.3071C93.8168 79.6397 93.7762 79.9738 93.7422 80.3104C93.7284 80.3412 93.7243 80.3753 93.7316 80.4077C93.5378 82.3615 93.5897 84.3624 93.4899 86.3146C93.3667 88.7485 93.0219 91.1655 92.9246 93.6018V93.6465C92.5645 95.7252 92.2393 97.8112 91.9441 99.9045C91.614 99.8015 91.2352 99.8226 90.8475 100.029C88.1095 101.492 85.0323 102.306 81.9358 102.488C80.3769 102.579 78.8327 102.527 77.282 102.347C76.2625 102.231 75.2584 102.018 74.2527 101.816C74.7823 99.5963 75.3509 97.3862 75.9932 95.1996C76.5228 93.4007 77.1125 91.6115 77.8408 89.8816C78.5756 88.1354 79.4904 86.4671 80.342 84.7736C80.7346 83.9901 80.2723 82.7922 79.2528 82.8741C78.9511 82.8985 78.6494 82.9171 78.3461 82.9309C75.3955 83.072 72.3265 82.7427 69.414 82.4491C66.0984 82.1134 62.7383 81.7654 59.4519 81.2188C59.2086 81.179 59.1088 81.5099 59.3489 81.5902C60.9077 82.115 62.4487 82.7079 64.0473 83.1004C65.6921 83.5067 67.3475 83.8774 69.0166 84.1669C70.6152 84.4427 72.2202 84.6747 73.831 84.8701C74.8813 84.9983 75.9437 85.0631 77.0013 85.1491C75.5771 87.4257 74.5958 89.9935 73.7401 92.5215C72.642 95.7681 71.835 99.1089 71.045 102.443C69.3556 109.589 67.9622 116.808 66.873 124.07C66.0911 129.278 65.4593 134.506 64.9849 139.748C64.8438 138.156 64.6726 136.569 64.4788 134.983C63.8316 129.719 62.8851 124.489 61.6207 119.338C61.7342 119.139 61.7869 118.901 61.7496 118.67C61.5217 117.254 60.9215 116.021 60.396 114.708C59.8728 112.874 59.3092 111.052 58.7025 109.243C58.0139 106.78 57.241 104.355 56.2523 101.986C55.4972 100.18 54.6351 98.4219 53.6755 96.7163C52.5292 94.3318 51.2697 91.9992 49.887 89.7688C49.8151 89.5612 49.6985 89.3674 49.5323 89.2052C49.2804 88.8069 49.0251 88.4144 48.7647 88.0251C48.5951 87.772 48.1084 87.9261 48.2369 88.2481C48.2969 88.399 48.3569 88.5498 48.4185 88.6991C42.7864 87.2903 37.2638 89.4444 31.8989 91.0357C30.5452 91.438 29.1779 91.8021 27.7899 92.0641C26.6985 92.2701 25.4271 92.5199 24.339 92.2936C23.6108 92.1428 23.2886 91.8119 23.6434 91.0341C24.01 90.2287 25.0107 89.6983 25.8794 89.3422C26.2067 89.2717 26.5288 89.1468 26.839 88.9578C27.5621 88.519 27.8791 87.6042 27.5381 86.8239C27.228 86.1191 26.3232 85.5125 25.5231 85.8344C25.4082 85.8807 25.2952 85.9253 25.182 85.9699C25.1701 85.9529 25.1564 85.9293 25.1444 85.8945C25.0295 85.5814 24.9799 85.9569 25.0295 85.5076C25.1118 84.7736 25.888 84.1069 26.4192 83.6868C27.7403 82.6397 29.6491 81.8652 31.354 82.261C31.4825 82.2902 31.611 82.3259 31.7378 82.3705C33.4941 82.9788 34.3492 80.4491 32.9458 79.5059C32.8601 79.4499 32.7522 79.3777 32.634 79.2934C32.0497 78.887 31.1946 78.2033 31.4277 77.5861C31.7156 76.8205 33.4136 76.3793 34.0562 76.1189C36.3797 75.1765 38.8899 74.6412 41.395 74.5317C43.9155 74.4222 46.4686 74.6996 48.9 75.3801C50.0926 75.7126 51.3178 76.2187 52.4452 76.7296C53.4579 77.1871 55.6611 77.7921 55.8022 79.0744C55.833 79.3574 56.2353 79.4531 56.3229 79.1441C57.0131 76.6826 54.3334 75.0938 52.5652 74.0775C51.4051 73.4084 50.0892 72.9923 48.8161 72.5827C47.5961 72.1886 46.3504 71.899 45.0789 71.7239C42.3494 71.35 39.5873 71.3978 36.88 71.9226C34.4142 72.4011 31.671 73.217 29.6782 74.8042C28.4548 75.7775 27.9014 77.3274 28.3931 78.8392C28.4102 78.8886 28.4274 78.9406 28.4445 78.99C26.2427 79.3842 24.1591 80.6462 22.7661 82.4045C21.6214 83.8498 21.0217 85.8604 22.0463 87.5425C22.0035 87.5733 21.9607 87.6058 21.9196 87.6398C20.9429 88.4217 20.2164 89.5563 20.0005 90.7972C19.5773 93.245 21.056 94.9571 23.1241 95.6124C22.6118 96.1128 22.1201 96.6441 21.6385 97.1753C20.5608 98.3667 19.531 99.6644 18.6228 100.988C16.7826 103.669 15.2096 106.588 13.8337 109.529C11.0047 115.57 9.22101 122.072 8.27517 128.664C7.79876 131.986 7.4801 135.325 7.35844 138.678C7.21789 142.501 7.36015 146.326 7.2865 150.15C7.21448 153.825 6.80839 157.411 5.98761 160.993C5.20114 164.42 4.15253 167.778 3.2032 171.16C2.1323 174.969 0.95344 178.761 0.387978 182.688C0.101841 184.686 -0.103758 186.691 0.055613 188.711C0.216687 190.77 0.963741 192.53 1.65256 194.445C1.82734 194.934 2.3602 195.13 2.78689 195.027C2.88284 195.943 3.22892 196.838 3.74474 197.613C4.83965 199.255 6.52566 200.302 8.45676 200.683C10.6329 201.109 12.8758 201.009 15.0794 200.929C17.4697 200.844 19.8617 200.767 22.252 200.667C24.7545 200.564 27.2569 200.458 29.7594 200.351C29.6767 197.785 29.578 195.22 29.4664 192.655C28.8631 178.791 27.913 164.918 27.8878 151.035C27.8393 151.006 27.7917 150.973 27.7461 150.928C26.6195 149.839 25.2364 149.124 23.9369 148.27C23.2014 147.788 23.8889 146.601 24.6288 147.087C25.7244 147.806 26.8661 148.444 27.8928 149.249C27.8988 147.805 27.9114 146.36 27.9401 144.914C27.9576 144.032 29.3283 144.032 29.3109 144.914C29.2248 149.27 29.2536 153.627 29.3522 157.982C29.671 172.096 30.6734 186.184 31.1299 200.293C37.8468 200.006 44.5639 199.716 51.2817 199.471C56.7463 199.272 62.2103 199.074 67.6743 198.874C68.8211 198.834 69.4651 198.014 69.6054 196.942C69.8625 194.971 69.3799 192.933 68.2867 191.275C68.1731 191.104 68.0393 190.952 67.8909 190.821C67.916 189.64 67.9639 188.457 67.8973 187.276C67.7984 185.473 67.6492 183.67 67.5186 181.868C67.255 178.26 67.0506 174.645 66.9703 171.028C66.8057 163.795 66.9257 156.554 67.3353 149.331C68.1561 134.899 70.0669 120.56 73.1935 106.444C73.4214 105.416 73.6509 104.387 73.8894 103.36C76.3209 104.624 79.278 105.077 81.9358 105.095C85.2667 105.115 88.5239 104.349 91.5329 102.956C91.5126 103.111 91.4923 103.266 91.4729 103.422C90.6334 110.107 89.9262 116.806 89.309 123.513C88.0786 136.886 87.3252 150.313 87.429 163.744C87.4582 167.466 87.6009 171.175 87.7769 174.891C87.957 178.672 88.2327 182.665 89.2847 186.312C89.4014 186.714 89.6602 186.946 89.9586 187.03C89.974 187.561 90.0081 188.094 90.0454 188.618C90.1671 190.324 90.515 193.868 91.2587 195.413C91.9838 196.922 93.1915 198.118 94.7325 198.777C96.6887 199.611 98.8047 199.371 100.871 199.237C109.857 198.652 118.836 197.867 127.816 197.177C129.067 197.082 130.318 196.987 131.567 196.889C132.679 196.804 133.829 196.728 134.816 196.151C135.938 195.495 136.814 192.27 136.426 190.936C136.356 190.693 136.25 190.453 136.11 190.236Z" fill="#111111"/>
<path fill-rule="evenodd" clip-rule="evenodd" d="M110.246 22.086C110.189 20.0362 107.209 19.1851 106.347 21.2152C106.294 21.2695 106.236 21.3218 106.181 21.3686C106.451 21.1374 105.888 21.52 105.796 21.5673C105.717 21.6077 105.637 21.6443 105.557 21.682C105.004 16.4891 103.124 10.891 98.2654 8.28448C91.4891 4.99746 83.6601 4.35585 76.2268 4.68237C72.4611 4.9059 68.1123 5.50826 64.7667 3.60247C63.7245 3.0087 62.8883 2.07397 61.7107 1.70697C57.992 0.700621 56.3051 4.52073 56.8112 7.66224C55.2256 7.67481 53.6519 8.55326 52.9674 9.99968C52.5653 10.8557 52.5724 11.7795 52.2257 12.6386C51.1622 14.8173 49.6405 16.3833 50.5008 19.0248C48.9876 20.7474 49.8503 23.3551 51.0714 25.0043C51.6743 25.8621 52.3925 26.6856 52.8342 27.6456C53.2629 28.5649 52.6157 29.6552 52.2556 30.5266C49.5928 36.8431 49.745 43.7993 51.1778 50.3876C48.3025 51.6358 47.4397 55.537 49.3146 57.9936C49.9597 58.8623 50.7466 59.1842 51.6392 59.7187C52.7687 60.3408 51.8462 62.8315 52.2079 64.0343C52.6993 66.9719 55.3724 68.7797 58.0156 66.873C59.6928 66.6191 61.0456 71.5008 62.263 72.7263C63.0132 73.7133 63.847 74.5998 64.7521 75.4182C67.4513 82.3648 81.2796 85.8872 88.1168 85.4849C95.2767 84.7355 100.107 78.6526 104.129 73.2543C106.194 70.3775 107.537 67.1576 108.026 63.6466C108.516 60.117 108.302 56.5816 107.97 53.0487C107.274 45.5412 106.174 34.7256 105.464 27.1373C108.03 26.9259 110.324 24.7409 110.246 22.086Z" fill="#FFFEFC"/>
<path fill-rule="evenodd" clip-rule="evenodd" d="M54.3204 17.5724C54.318 17.583 54.322 17.591 54.3245 17.6023C54.3245 17.5991 54.3253 17.5974 54.3261 17.5935C54.3237 17.5849 54.322 17.5792 54.3204 17.5724Z" fill="#4F66AF"/>
<path fill-rule="evenodd" clip-rule="evenodd" d="M54.3187 17.681C54.31 17.6714 54.2966 17.6642 54.2839 17.6544C54.2831 17.6548 54.2831 17.6551 54.2831 17.6554C54.295 17.6635 54.3069 17.6727 54.3187 17.681Z" fill="#4F66AF"/>
<path fill-rule="evenodd" clip-rule="evenodd" d="M109.838 23.056C110.681 22.3556 112.008 23.0005 111.722 24.1536C111.412 25.4094 110.066 26.2675 108.956 26.7834C107.812 27.3143 106.699 27.4166 105.451 27.3587L105.436 27.3553C105.782 28.7443 105.979 30.1881 106.244 31.5854C106.58 33.3582 106.91 35.1318 107.236 36.9063C107.552 38.6215 107.95 40.3389 108.192 42.0627C108.436 43.8027 108.67 45.544 108.91 47.2845C109.311 50.1913 109.634 53.1119 109.974 56.0276L110.137 57.4072C110.478 60.3278 110.753 63.2524 110.107 66.1592C109.5 68.8835 108.135 71.4245 106.551 73.6987C105 75.925 103.268 78.0662 101.366 80.003C97.6977 83.7379 93.1744 86.7298 87.8702 87.2846C85.5863 87.5238 83.1467 87.2578 80.9998 86.4273L80.8571 86.3713C78.6835 85.5132 76.0216 84.0428 75.4563 81.6308C75.1092 80.1514 76.6331 78.9965 77.9689 79.698C78.5886 80.0241 79.0541 80.3955 79.5626 80.8619L79.6527 80.9446C80.0679 81.3307 80.2277 81.4491 80.707 81.7516C81.69 82.3696 82.4265 82.6624 83.5433 82.9438C85.6017 83.4621 87.8232 83.3802 89.9132 82.767C94.3505 81.4669 97.7925 78.0727 100.741 74.6696C102.342 72.8212 103.862 70.8828 105.034 68.7286C106.263 66.4691 106.831 64.0967 106.797 61.5257C106.759 58.6246 106.358 55.7121 106.094 52.824C105.827 49.8807 105.579 46.9379 105.36 43.9901C105.156 41.2256 105.137 38.4488 105.065 35.6757L105.051 35.1558C105.009 33.6838 104.98 32.2111 104.946 30.7386C104.914 29.2705 104.797 27.7836 104.948 26.3217C104.959 26.2152 105.103 26.1882 105.137 26.2959C105.227 26.5698 105.304 26.848 105.378 27.1278C105.39 27.1192 105.402 27.1115 105.417 27.1062C106.395 26.7702 107.295 26.0995 108.029 25.3761C108.728 24.6859 109.094 23.6746 109.838 23.056ZM56.3651 2.4866C56.979 -0.0359954 59.7415 -0.599432 61.7845 0.615436C62.7675 1.19955 63.5542 2.04207 64.4715 2.71167C65.3847 3.37738 66.3929 3.91202 67.457 4.28964C69.5714 5.03978 71.8017 5.31253 74.0362 5.32227C79.475 5.34611 84.802 3.81713 90.249 3.98761C94.4632 4.11965 98.9369 5.36566 101.994 8.41341C103.64 10.0552 104.702 12.166 105.271 14.407C105.537 15.4543 105.735 16.527 105.892 17.5972L105.93 17.8647C106.017 18.4902 106.158 19.1524 106.171 19.7845C106.183 20.3523 106.039 20.9464 105.961 21.5083C105.798 22.6928 103.964 22.5579 103.7 21.5083C103.1 19.1186 103.351 16.6523 102.617 14.2709C101.968 12.159 100.707 10.3126 98.881 9.04968C91.1777 3.72215 81.2983 8.18356 72.8107 7.76903C70.736 7.66773 68.6314 7.34705 66.6743 6.63243C65.6654 6.26389 64.6718 5.81441 63.757 5.24911C62.9183 4.7315 62.1924 4.08112 61.4163 3.48265L61.074 3.22239C60.542 2.82205 59.6368 2.19609 59.0999 2.7257C58.8663 2.9562 58.8526 3.47746 58.8566 3.87544L58.859 4.05533C58.8834 5.74515 59.2281 7.43188 58.5955 9.06444C58.3075 9.80906 57.5062 10.2786 56.7438 9.85691L56.7041 9.83428C55.0925 8.87481 52.9741 10.8028 54.2126 12.3984L54.2515 12.4467C54.9482 13.2938 54.5767 14.7856 53.3293 14.7819L53.2844 14.7811C51.0624 14.7118 50.0765 17.4898 51.9917 18.7036L52.0507 18.74C53.6056 19.6709 52.2417 21.9091 50.648 21.1406C50.783 21.2057 50.5483 21.2049 50.4139 21.3852C50.2849 21.5584 50.2753 21.7082 50.306 21.9269C50.3991 22.5896 50.9817 23.1481 51.4535 23.5673C52.5255 24.5199 53.8543 25.1776 55.2239 25.5781C60.7082 27.1822 66.3353 25.22 71.6793 24.035C77.2512 22.7996 83.5433 22.3019 88.4022 25.8076C88.4598 25.8491 88.4095 25.9418 88.3455 25.9048C84.8588 23.879 80.5878 24.0588 76.7759 24.8893C71.7782 25.9785 66.8235 28.0058 61.7042 28.5399C63.1414 31.0779 63.7432 34.0754 63.3587 36.9783C63.0951 38.9767 62.2995 40.71 61.3611 42.4665L61.1819 42.8013C60.3449 44.378 59.696 45.8675 59.6855 47.6941C59.6758 49.5084 56.979 49.8912 56.5216 48.1224C55.4835 44.1055 59.2646 40.9413 60.8072 37.6287C62.1259 34.7969 62.1665 31.4953 61.0992 28.5958C59.8956 28.6927 58.6822 28.7028 57.4567 28.5934C56.404 28.4993 55.3213 28.3095 54.2661 28.0092L53.8436 29.7851C53.2842 32.1505 52.7658 34.5143 52.6088 36.9712C52.4931 38.7765 52.4993 40.5907 52.6752 42.3917C52.8274 43.9471 53.1485 45.4471 53.4752 46.9656C53.7556 47.3356 53.8987 47.9017 53.82 48.3527C55.64 48.8766 57.0707 50.3138 57.5938 52.2157C57.6254 52.3317 57.464 52.3966 57.4032 52.2968C56.1623 50.2368 52.9674 49.4792 50.9463 50.8402C49.0163 52.1387 48.255 54.7616 49.3475 56.8379C49.9221 57.9295 50.7742 58.6968 51.8728 59.2248L52.0937 59.3286C52.6694 59.6011 53.1979 59.8979 53.5681 60.4454C54.0487 61.1551 54.0649 61.9061 54.0195 62.7171L53.9992 63.0464C53.9692 63.5898 53.9627 64.1495 54.1241 64.6726L54.1615 64.7894C54.2036 64.92 54.249 65.0343 54.3269 65.1592C54.3496 65.1965 54.5686 65.4106 54.64 65.4885L54.73 65.5161L54.8298 65.5201C54.9417 65.5218 55.0877 65.4731 55.0398 65.5063L55.0528 65.499C55.095 65.4731 55.1339 65.4447 55.1672 65.4204L55.2288 65.3717C55.3748 65.1616 55.5565 64.9873 55.7803 64.8551L55.9944 64.7602C56.5492 64.1738 57.4997 64.482 57.8979 65.0659C58.1842 65.4861 58.3384 65.9127 58.3513 66.3336C58.3959 66.2622 58.4949 66.2225 58.5581 66.3028L58.9353 66.7837C60.3789 68.6289 61.7975 70.4854 63.4374 72.1675C64.3409 73.0937 65.3125 73.9648 66.3288 74.7669C67.1958 75.4514 68.8414 76.11 68.8666 77.3574C68.8747 77.7629 68.5867 78.0492 68.2356 78.1871C67.0912 78.6339 65.6767 77.1132 64.8503 76.3727L64.7829 76.3127C63.7716 75.4262 62.8478 74.4538 61.9962 73.4132C60.3416 71.3921 58.958 69.066 58.3481 66.5064C58.3197 66.9532 58.1275 67.3904 57.7552 67.804C57.2588 68.3531 56.5792 68.7384 55.8533 68.8973C54.2093 69.2566 52.6043 68.6646 51.626 67.2947C50.7993 66.1357 50.5558 64.6061 50.6625 63.2062L50.6757 63.0383C50.6907 62.8137 50.7097 62.4016 50.7678 62.2265L50.2502 61.9426C49.6155 61.6044 49.0272 61.1616 48.4993 60.6749C46.3775 58.7179 45.3129 55.5378 46.2829 52.7542C46.8897 51.0137 48.1647 49.4987 49.7973 48.7112C49.5244 48.081 49.4331 47.3314 49.3302 46.6686L49.3129 46.5589C49.1382 45.4714 48.9921 44.3703 48.9365 43.2698C48.8322 41.2145 48.9588 39.1401 49.2817 37.1087C49.8061 33.8091 50.8915 30.3098 52.8812 27.5418C51.3633 26.9388 49.9661 26.0658 48.8876 24.8535C47.7607 23.5867 47.0422 21.7731 47.9136 20.1644C48.1357 19.7544 48.4251 19.4097 48.7577 19.1359C48.181 18.0465 47.9943 16.7588 48.3502 15.528C48.7755 14.0566 49.9302 12.909 51.3252 12.3731C50.9865 10.979 51.2633 9.47945 52.2985 8.31763C53.3252 7.16497 54.9198 6.74517 56.3951 7.00868C56.4754 5.52592 56.009 3.94892 56.3651 2.4866ZM52.2262 54.545C53.5792 53.8832 55.1826 53.9879 56.5338 54.6156L56.6254 54.6594C58.1015 55.3747 60.0553 57.0471 59.5865 58.8257C59.3116 59.8663 58.1567 60.2216 57.2605 59.7722C56.5127 59.3975 56.3416 58.7268 55.9668 58.0528C55.7008 57.5759 55.3732 57.2037 54.9879 56.8208C54.1752 56.013 53.2627 55.4137 52.2262 54.9335C52.0768 54.8646 52.082 54.6164 52.2262 54.545ZM86.3162 18.5945C86.1897 18.5365 86.2814 18.3379 86.4087 18.3742C89.8086 19.3454 92.9782 21.5255 94.8728 24.5515C94.9879 24.7361 95.0058 25.04 94.8728 25.2228L94.8111 25.3057C94.7244 25.4191 94.6384 25.5028 94.4754 25.5282C94.168 25.5758 93.9011 25.4958 93.7243 25.2228C91.8589 22.3385 89.468 20.0368 86.3162 18.5945ZM109.075 19.1656C109.363 18.6776 110.127 18.7758 110.279 19.323L110.301 19.3706C110.383 19.5571 110.346 19.5953 110.193 19.4898C110.571 19.802 110.743 20.2673 110.627 20.7675C110.001 23.469 106.943 25.3981 104.276 25.1326C104.043 25.1095 104.012 24.8233 104.223 24.738C105.249 24.3225 106.159 23.6476 106.892 22.8195C107.603 22.0145 107.902 21.0936 108.285 20.1214C108.429 19.7565 108.652 19.4937 108.967 19.3502C109.009 19.2926 109.045 19.2312 109.075 19.1656ZM93.9117 17.4297L93.9303 17.4308C95.3002 17.6078 96.4851 18.2843 97.447 19.2754C98.3741 20.2298 99.5436 21.8048 99.443 23.2055C99.3765 24.134 98.057 24.6648 97.5646 23.7145C97.271 23.1475 97.2045 22.526 96.9985 21.9263C96.8096 21.3768 96.5492 20.855 96.237 20.3656C95.5938 19.3574 94.7098 18.5032 93.8054 17.7325C93.6992 17.6423 93.773 17.4301 93.9117 17.4297ZM58.7706 17.0181C58.4665 16.7288 58.7828 16.2355 59.1689 16.3331C61.207 16.8493 63.2249 17.477 65.3434 17.5394C66.4018 17.5704 67.4545 17.4869 68.5024 17.3499L69.0336 17.2795C69.8504 17.1727 70.6825 17.0889 71.4903 17.2569C72.0288 17.3688 72.1343 18.0631 71.7985 18.4252C70.2137 20.1358 67.1561 19.9723 65.0538 19.684C62.7707 19.3706 60.4674 18.6353 58.7706 17.0181ZM95.5703 11.6863C95.4308 11.4928 95.666 11.1874 95.8882 11.2732C97.9134 12.0562 100.035 14.0949 100.593 16.2278C100.741 16.7912 100.03 17.2167 99.6134 16.7984C98.8364 16.019 98.2873 15.0983 97.6303 14.2222C96.9758 13.3489 96.2102 12.5732 95.5703 11.6863ZM62.3879 12.6389C62.2257 12.4766 62.3887 12.1533 62.6223 12.2359C63.9411 12.703 65.2696 13.1072 66.6548 13.3193C68.0734 13.5362 69.5057 13.3713 70.9315 13.4593C71.5089 13.4948 71.9015 14.3927 71.26 14.6721C68.4099 15.9132 64.5396 14.7878 62.3879 12.6389ZM66.0295 9.85489C65.8032 9.68724 65.9322 9.22713 66.2404 9.35552C67.4959 9.87849 68.766 10.0071 70.1131 9.95327C70.6111 9.93323 70.7157 10.7157 70.2307 10.8213C68.7408 11.1454 67.2469 10.7551 66.0295 9.85489Z" fill="#111111"/>
<path fill-rule="evenodd" clip-rule="evenodd" d="M80.2399 66.8291C80.2577 64.941 81.8936 64.615 83.4484 64.8672C86.0794 65.293 88.7202 65.5923 91.3869 65.6466L91.846 65.6547C91.9206 65.5461 92.0439 65.4641 92.2118 65.4463C93.6903 65.2865 95.2005 65.3125 96.6863 65.2687C97.9832 65.2306 99.3157 65.1008 100.612 65.203L100.715 65.2119C102.3 65.3652 103.972 66.1746 103.781 68.0344C103.605 69.757 101.958 71.2818 100.644 72.2388C100.378 72.431 100.106 72.6111 99.8267 72.7749C99.7391 72.8868 99.6109 72.9647 99.4633 72.9809C98.1689 73.6801 96.7406 74.0937 95.2621 74.2316C92.1282 74.5235 88.4842 74.2072 85.4736 72.8487C84.4946 72.4067 83.5822 71.8552 82.7752 71.178C81.5303 70.1325 80.2261 68.5477 80.2399 66.8291ZM92.5889 70.5746C91.3326 70.5364 90.0779 70.7124 88.8816 71.1001C88.0705 71.3621 87.3317 71.8657 86.5539 72.2153C89.1728 73.2145 92.2158 73.4319 94.902 73.2502C96.0813 73.1707 97.224 72.899 98.2889 72.431C98.1227 72.311 97.9548 72.1893 97.7788 72.0831C97.2475 71.7611 96.692 71.4878 96.1129 71.2696C94.9847 70.8463 93.7941 70.6127 92.5889 70.5746ZM93.0098 54.0584C92.6708 53.8151 92.9401 53.0089 93.6643 53.1338C100.244 54.2644 96.8347 65.602 88.4347 59.3805C87.4347 58.5735 88.6456 56.7957 89.7235 57.4867L90.1063 57.7819C91.3504 58.7357 93.4089 60.1786 94.8834 58.6303C96.2751 56.6797 94.3043 54.8451 93.0098 54.0584ZM97.4641 45.4779C98.8631 44.2841 100.617 45.164 101.647 46.373L101.828 46.5892C102.034 46.8359 102.262 47.1232 102.399 47.4304C103.54 46.4584 105.088 45.7745 106.568 46.2185C108.004 46.6506 108.823 48.0218 108.576 49.4938C108.296 51.1686 107.03 52.2936 105.669 53.1638L105.284 53.4087C103.649 54.4518 102.119 55.5021 100.773 56.9352C100.553 57.1688 100.079 57.1379 99.9354 56.8273L99.8194 56.5783L99.7026 56.3285C98.748 54.292 97.7253 52.2692 96.885 50.1848C96.2629 48.6406 96.061 46.6744 97.4641 45.4779ZM81.5213 46.5593L81.7347 46.3128C82.759 45.1198 84.4955 44.321 85.8645 45.478C87.322 46.7105 87.0365 48.7485 86.3868 50.3203C85.605 52.2165 84.6917 54.0706 83.8142 55.9303L83.626 56.3285C83.5473 56.4948 83.4703 56.661 83.3932 56.8273C83.2497 57.1379 82.7736 57.1688 82.5554 56.9352C81.2513 55.5467 79.7768 54.5199 78.2009 53.5101L77.7257 53.2068C76.342 52.3292 75.0346 51.1962 74.7507 49.4946C74.5074 48.025 75.3209 46.6453 76.7589 46.2183C78.2423 45.778 79.7865 46.4568 80.9293 47.4304C81.0655 47.1154 81.2999 46.8188 81.5213 46.5593ZM83.3965 38.0001C83.8969 38.6501 83.3624 39.7124 82.6317 39.8804C81.7265 40.0887 80.8125 39.962 79.9236 40.2203C79.1093 40.4571 78.3299 40.9314 77.6316 41.4041C76.8359 41.9431 76.1027 42.5447 75.4288 43.2302C75.0289 43.638 74.5236 44.6041 73.9056 44.6221C73.2917 44.6401 74.1165 42.7183 74.1846 42.5521C74.6688 41.3684 75.3493 40.2793 76.2001 39.3252C77.8797 37.4426 81.4362 35.456 83.3965 38.0001ZM102.151 37.4799L102.57 37.5964C103.608 37.8849 104.715 38.2394 105.605 38.8615L105.675 38.911L105.783 38.9898C106.9 39.8231 108.481 41.4858 107.689 42.9363C107.635 43.0363 107.519 43.0462 107.425 43.0054C106.373 42.5441 105.592 41.6229 104.472 41.2376L104.266 41.1672C103.181 40.8018 101.84 40.4176 100.673 40.4525C99.8518 40.7194 98.7431 40.4983 98.5298 39.4989L98.5201 39.4499L98.5014 39.3464C98.3781 38.6634 98.5614 37.7928 99.2671 37.4637C100.234 37.0129 101.178 37.2134 102.151 37.4799Z" fill="#111111"/>
<path fill-rule="evenodd" clip-rule="evenodd" d="M77.7451 71.6841C79.1328 68.4334 82.1604 66.0441 85.6463 65.1697C88.2068 64.5298 90.893 64.5509 93.5029 64.8048C94.8695 64.937 96.3367 65.0448 97.6247 65.5526C98.7253 65.9865 99.6223 66.8072 100.296 67.77C101.098 68.9111 101.644 70.2169 102.028 71.5551C102.082 71.7457 102.133 71.9371 102.181 72.1301C102.015 73.1399 101.66 73.9996 100.725 74.6339C99.8129 75.2543 98.7244 75.5082 97.6393 75.5982C97.533 75.5471 97.43 75.4944 97.3359 75.44C95.6449 74.4716 94.4543 72.1829 92.3196 72.4927C90.4145 72.7693 89.1606 75.1675 88.0275 76.5731C84.3916 76.9972 80.7581 75.9039 77.7994 73.8236C77.6494 73.1123 77.6405 72.3937 77.7451 71.6841ZM104.652 69.2177C104.361 68.4018 103.995 67.6102 103.561 66.8656C102.125 64.4017 99.9216 62.4381 97.3051 61.3156C91.1152 58.6651 83.1069 60.5338 78.1084 64.8818C76.4012 66.3685 74.6745 68.5526 74.1522 70.9022C73.9964 70.933 73.8496 71.0141 73.728 71.1285C70.1172 68.8535 66.3977 66.6653 63.4877 63.5128C61.3749 61.2216 59.9045 58.5102 59.0042 55.5313C58.9312 55.2863 58.5354 55.322 58.5476 55.5937C58.5509 55.657 58.5541 55.7202 58.5582 55.7835C58.52 55.6667 58.3424 55.7267 58.3286 55.8403C57.8444 59.4592 57.2386 63.2962 57.7966 66.9338C58.1299 69.1049 59.1162 70.6938 60.4333 72.41C61.8453 74.2494 63.4431 75.9599 65.0774 77.6007C66.1147 78.642 67.1974 79.8432 68.4675 80.6072C69.9444 81.4945 71.6193 82.1685 73.1959 82.853C74.7986 83.5513 76.4263 84.1969 78.0841 84.7565C81.3989 85.8782 84.8247 86.6544 88.3106 86.9942C91.1014 87.2651 94.2913 87.5603 96.9661 86.51C99.0156 85.7055 100.671 84.2504 101.983 82.4994C103.412 80.5934 104.541 78.4214 105.166 76.1319C105.815 73.7531 104.789 69.6013 104.652 69.2177Z" fill="#111111"/>
</svg>
