<svg width="111" height="34" viewBox="0 0 111 34" fill="none" xmlns="http://www.w3.org/2000/svg">
<rect x="1" y="4" width="21" height="26" stroke="#FFFEFC" stroke-width="2"/>
<path d="M7.94815 23H10.2546V18.4936H14.6918V16.592H10.2546V13.9925H15.1712V12.0909H7.94815V23Z" fill="#FFFEFC"/>
<rect x="24.3569" y="19.7892" width="21" height="26" transform="rotate(-61.3698 24.3569 19.7892)" fill="#FFFEFC" stroke="#FFFEFC" stroke-width="2"/>
<path d="M43.7425 22.8759L47.2749 16.4052L45.6058 15.494L43.1786 19.9403L40.8923 18.6922L43.1281 14.5966L41.459 13.6854L39.2232 17.781L36.9416 16.5355L39.3586 12.1079L37.6895 11.1967L34.1673 17.6488L43.7425 22.8759Z" fill="#111111"/>
<path d="M68.2784 22H72.7386C75.4432 22 76.6648 20.6534 76.6648 18.8693C76.6648 17.0682 75.4034 16.0511 74.25 15.9886V15.875C75.3182 15.6023 76.2102 14.875 76.2102 13.4205C76.2102 11.6989 75.017 10.3636 72.5398 10.3636H68.2784V22ZM70.0341 20.4943V16.767H72.6307C74.0398 16.767 74.9205 17.6761 74.9205 18.7841C74.9205 19.7614 74.2557 20.4943 72.5682 20.4943H70.0341ZM70.0341 15.3977V11.858H72.4318C73.8239 11.858 74.4886 12.5909 74.4886 13.5568C74.4886 14.6818 73.5682 15.3977 72.3864 15.3977H70.0341ZM78.7472 22H85.7756V20.4886H80.5028V10.3636H78.7472V22ZM97.4332 16.1818C97.4332 12.4602 95.206 10.2045 92.1946 10.2045C89.1719 10.2045 86.9503 12.4602 86.9503 16.1818C86.9503 19.8977 89.1719 22.1591 92.1946 22.1591C95.206 22.1591 97.4332 19.9034 97.4332 16.1818ZM95.6946 16.1818C95.6946 19.017 94.1946 20.5568 92.1946 20.5568C90.1889 20.5568 88.6946 19.017 88.6946 16.1818C88.6946 13.3466 90.1889 11.8068 92.1946 11.8068C94.1946 11.8068 95.6946 13.3466 95.6946 16.1818ZM107.497 14.0398H109.298C108.906 11.7727 106.969 10.2045 104.457 10.2045C101.446 10.2045 99.2472 12.4716 99.2472 16.1875C99.2472 19.8693 101.384 22.1591 104.537 22.1591C107.361 22.1591 109.378 20.3068 109.378 17.3693V16.0455H104.804V17.4943H107.679C107.639 19.3693 106.401 20.5568 104.537 20.5568C102.486 20.5568 100.991 19.0057 100.991 16.1761C100.991 13.358 102.497 11.8068 104.469 11.8068C106.014 11.8068 107.06 12.6591 107.497 14.0398Z" fill="#FFFEFC"/>
</svg>
