<svg width="35" height="35" viewBox="0 0 35 35" fill="none" xmlns="http://www.w3.org/2000/svg">
<path opacity="0.3" d="M17.5001 5.83334C15.374 5.8372 13.3361 6.68349 11.8328 8.18685C10.3294 9.69021 9.4831 11.7281 9.47925 13.8542C9.47925 17.4563 11.6522 19.5271 12.9063 20.4167H22.0938C23.348 19.5271 25.5209 17.4563 25.5209 13.8542C25.5209 9.43543 21.9188 5.83334 17.5001 5.83334Z" fill="#111111"/>
<path d="M17.5 32.0833C19.1042 32.0833 20.4167 30.7708 20.4167 29.1667H14.5833C14.5833 30.7708 15.8958 32.0833 17.5 32.0833ZM11.6667 24.7917H23.3333V27.7083H11.6667V24.7917ZM17.5 2.91666C11.4625 2.91666 6.5625 7.81666 6.5625 13.8542C6.5625 19.425 10.4417 22.4 12.0604 23.3333H22.9396C24.5583 22.4 28.4375 19.425 28.4375 13.8542C28.4375 7.81666 23.5375 2.91666 17.5 2.91666ZM22.0938 20.4167H12.9063C11.6521 19.5271 9.47917 17.4562 9.47917 13.8542C9.47917 9.43541 13.0812 5.83332 17.5 5.83332C21.9188 5.83332 25.5208 9.43541 25.5208 13.8542C25.5208 17.4562 23.3479 19.5271 22.0938 20.4167Z" fill="#CF534A"/>
</svg>
