<svg width="433" height="252" viewBox="0 0 433 252" fill="none" xmlns="http://www.w3.org/2000/svg">
<path fill-rule="evenodd" clip-rule="evenodd" d="M412.37 149.241C409.438 135.343 399.037 124.558 385.05 119.185C382.361 117.663 379.755 111.136 376.141 109.94C375.562 109.749 376.476 111.274 376.141 111.365C374.946 111.69 373.607 111.724 372.288 110.55C369.93 108.454 369.19 102.328 367.756 99.5604C360.195 84.9584 341.315 90.6714 338.786 106.813C337.022 107.963 334.529 108.976 332.61 109.902C330.633 110.856 328.894 113.168 326.857 113.994C325.039 114.731 322.044 114.209 320.213 114.852C311.789 117.808 304.654 121.538 299.06 129.096C297.881 130.69 296.553 132.649 295.48 134.26C289.95 140.628 286.109 147.766 282.572 155.423C272.675 177.901 269.983 202.788 267.568 227.006C267.623 231.243 264.812 242.993 268.969 245.025C268.721 245.282 268.811 245.8 269.272 245.795C279.812 245.689 290.329 246.633 300.706 248.467C305.713 249.353 310.693 250.567 315.793 250.766C326.379 250.693 336.928 248.918 347.501 250.598C360.211 250.598 375.658 250.227 389.799 249.683C403.014 249.175 416.3 250.323 429.352 248.075C430.385 247.911 430.889 246.651 430.673 245.747C429.141 240.166 428.39 234.421 427.53 228.708C427.702 225.043 427.395 221.218 426.04 217.805C422.5 194.764 417.96 171.873 412.37 149.241Z" fill="#FFFEFC"/>
<path fill-rule="evenodd" clip-rule="evenodd" d="M408.106 179.527C407.827 180.882 407.436 182.237 406.916 183.52C406.416 184.758 405.662 185.868 405.142 187.092C405.072 187.256 404.958 187.381 404.821 187.476L404.864 187.809L404.903 188.142C405.162 190.388 405.454 192.628 405.706 194.874L405.829 195.998C406.325 200.688 407.109 205.354 407.717 210.031C408.313 214.611 408.92 219.191 409.568 223.765C410.238 228.48 410.92 233.189 411.716 237.885C412.053 239.869 412.404 241.85 412.769 243.831L413.052 245.346C415.959 246.046 416.753 250.099 413.793 251.596C412.45 252.272 410.724 252.109 409.616 251.046C408.466 249.939 408.418 247.941 408.151 246.441L407.894 245.046C405.969 234.563 404.298 223.958 403.517 213.326C403.316 210.581 403.147 207.834 403.038 205.084C402.933 202.497 402.983 199.911 402.943 197.325L402.93 196.619C402.869 193.861 402.919 191.107 402.991 188.349C403 188.013 403.014 187.677 403.031 187.339C402.934 187.225 402.864 187.089 402.835 186.958L402.797 186.785C402.702 186.339 402.809 185.817 403.152 185.498C403.3 183.619 403.494 181.742 403.547 179.865C403.551 179.711 403.773 179.716 403.786 179.865C403.91 181.463 404.159 183.065 404.409 184.665C406.012 183.376 407.197 181.25 407.897 179.47C407.947 179.341 408.136 179.388 408.106 179.527ZM370.166 104.832C370.432 106.049 370.959 107.142 371.664 108.159C372 108.645 372.382 109.097 372.841 109.475C373.234 109.798 373.682 110.01 374.1 110.291C374.709 110.196 375.344 110.426 375.771 110.874L375.704 110.219C375.682 110.008 376.033 109.966 376.074 110.17C377.922 119.496 379.608 128.827 381.067 138.219L381.706 142.367L382.308 146.261C383.307 152.75 384.274 159.236 385.002 165.772C385.971 174.495 386.787 183.241 387.382 191.999C387.98 200.819 388.348 209.645 388.61 218.481C388.675 220.709 388.745 222.935 388.813 225.162L389.264 222.499C389.714 219.835 390.156 217.169 390.535 214.493C391.893 204.917 392.979 195.273 393.509 185.614C393.995 176.776 393.833 167.762 391.585 159.151C391.018 156.985 390.325 154.852 389.489 152.774C388.678 150.754 387.571 148.881 386.698 146.891C385.684 144.574 385.38 142.389 385.902 139.895C386.358 137.722 387.159 135.679 387.302 133.442C387.571 129.292 386.221 125.271 384.313 121.639C383.81 120.681 383.28 119.736 382.726 118.8C381.051 115.97 379.162 113.243 377.202 110.629C377.096 110.49 377.32 110.336 377.434 110.45C379.221 112.217 381.175 113.954 382.783 115.883C383.565 116.822 384.328 117.779 385.05 118.762C392.977 120.087 399.788 125.026 404.444 131.549C409.728 138.95 412.401 147.859 414.378 156.632C416.578 166.381 418.433 176.22 420.408 186.018C422.453 196.156 424.487 206.295 426.545 216.431C427.568 221.463 428.59 226.496 429.611 231.53C430.128 234.079 430.671 236.622 431.24 239.162C431.531 240.464 431.844 241.764 432.114 243.07C432.418 244.543 432.135 245.485 431.138 246.568C430.771 246.969 430.19 246.963 429.733 246.749L429.591 246.682L429.453 246.616C428.888 246.338 428.445 246.05 428.094 245.433C427.707 244.754 427.646 244.002 427.513 243.247C427.268 241.859 427.025 240.47 426.78 239.08C426.414 237 426.016 234.926 425.61 232.853L423.577 222.492C423.035 219.729 422.492 216.967 421.946 214.206C419.996 204.331 418.044 194.459 416.092 184.587C414.218 175.108 412.559 165.563 410.426 156.139L410.304 155.608L410.181 155.078C408.273 146.954 405.607 139.095 400.771 132.21C397.048 126.916 391.878 122.188 385.79 119.795C386.219 120.413 386.631 121.043 387.024 121.685C389.491 125.718 391.293 130.505 390.871 135.307C390.664 137.653 389.772 139.958 389.856 142.323C389.935 144.424 391.234 146.269 392.132 148.097C394.171 152.24 395.645 156.642 396.596 161.159C398.504 170.228 398.497 179.559 397.84 188.765C397.126 198.773 395.77 208.778 394.226 218.688C393.433 223.771 392.379 228.812 391.572 233.887C391.173 236.389 390.63 238.885 390.154 241.375L389.928 242.564C389.801 243.224 389.669 243.882 389.517 244.533L389.424 244.923V244.993C389.419 245.473 389.288 245.87 389.077 246.187C388.788 247.115 388.428 248.02 387.951 248.888C387.706 249.332 387.351 249.581 386.964 249.672C386.575 250.562 385.694 251.247 384.643 251.243L370.806 251.19C362.77 251.158 354.733 251.105 346.697 251.061C344.669 251.05 342.643 251.012 340.617 250.96C338.717 250.907 336.896 250.678 335.018 250.442C332.897 250.175 331.747 248.673 332.064 246.553C332.134 246.086 332.21 245.621 332.282 245.156C331.859 245.295 331.357 245.23 331.017 244.898L330.698 244.586C330.256 244.148 329.86 243.719 329.58 243.135C329.29 242.535 329.056 241.901 328.8 241.288C328.249 239.969 327.712 238.646 327.19 237.317C326.145 234.658 325.099 231.989 324.127 229.302C322.202 223.983 320.499 218.583 319.019 213.122C316.378 203.378 314.468 193.447 313.264 183.427L312.976 181.039L312.892 180.333C312.435 176.45 312.051 172.506 312.233 168.63C312.345 166.204 312.721 163.759 313.627 161.493C314.464 159.403 315.754 157.615 316.982 155.746L317.122 155.531L317.264 155.31C318.337 153.613 319.191 151.839 319.234 149.778C319.277 147.686 318.668 145.651 317.987 143.693L317.818 143.21L317.704 142.891C316.255 138.844 314.606 134.855 315.15 130.452C315.953 123.968 319.883 118.741 324.826 114.71C320.43 115.581 316.078 117.301 312.237 119.483C307.701 122.061 303.617 125.464 300.095 129.304C293.44 136.562 288.689 145.27 284.8 154.26C280.728 163.67 277.709 173.529 275.434 183.518C273.146 193.563 271.614 203.769 270.568 214.016C270.047 219.115 269.637 224.228 269.297 229.343C269.124 231.963 268.993 234.588 268.79 237.205C268.587 239.819 268.496 242.474 267.858 245.018C267.56 246.204 265.551 246.325 265.336 245.018C264.858 242.101 264.991 239.085 265.125 236.131L265.137 235.863C265.268 232.921 265.439 229.981 265.642 227.041C266.056 221.032 266.609 215.032 267.332 209.051C269.865 188.055 274.536 167.17 283.699 148.004C288.013 138.978 293.55 130.207 301.253 123.689C304.921 120.588 309.055 118.113 313.511 116.321C317.495 114.717 321.543 113.958 325.777 113.96C327.9 112.333 330.18 110.915 332.457 109.703C332.594 109.63 332.738 109.807 332.624 109.921C332.565 109.978 332.508 110.037 332.449 110.092C332.707 110.109 332.973 110.23 333.211 110.481C334.048 111.358 334.754 112.455 335.385 113.594C336.347 114.795 337.263 116.035 338.223 117.223C339.759 119.125 341.33 121 342.921 122.86C345.593 125.986 348.352 129.052 351.23 131.995L351.71 132.485C353.202 133.996 354.712 135.805 356.476 137.001L356.57 137.064C357.315 137.549 357.842 137.637 358.477 136.913C359.054 136.253 359.534 135.488 360.028 134.761L360.142 134.594C362.662 130.932 364.999 127.134 367.114 123.224C368.078 121.444 368.995 119.639 369.865 117.814L370.124 117.266C370.597 116.26 371.111 115.273 371.502 114.237C371.592 113.994 371.681 113.751 371.768 113.51C370.437 112.637 369.406 110.748 369.032 109.268C368.643 107.732 368.84 106.155 369.532 104.75C369.663 104.485 370.103 104.551 370.166 104.832ZM304.507 167.271C304.323 173.113 304.211 178.961 303.936 184.798L303.841 186.791C304.27 187.269 304.521 187.821 304.321 188.577C304.243 188.867 304.012 189.129 303.725 189.226L303.635 191.079C303.227 199.416 302.75 207.735 301.876 216.051C300.784 226.458 299.521 236.848 298.259 247.236C298.08 248.707 297.057 249.873 295.466 249.658C293.857 249.44 293.204 248.039 293.415 246.578C294.245 240.849 295.044 235.114 295.743 229.366L296.54 222.816C297.538 214.629 298.561 206.444 299.738 198.282C300.231 194.871 300.742 191.462 301.255 188.053L301.076 187.821C300.342 186.868 299.584 185.936 298.834 184.997C297.393 183.188 295.971 181.393 294.651 179.5C294.585 179.405 294.719 179.265 294.813 179.337C296.664 180.705 298.416 182.167 300.178 183.653L301.72 184.959C302.607 179.069 303.486 173.176 304.27 167.271C304.289 167.123 304.511 167.112 304.507 167.271ZM331.128 111.365C330.015 112.415 328.876 113.442 327.754 114.486L327.343 114.871L326.934 115.257C324.962 117.127 323.073 119.075 321.499 121.311C318.609 125.417 316.887 130.424 318.089 135.438C319.086 139.59 321.374 143.355 321.989 147.611C322.297 149.744 322.147 151.887 321.344 153.901C320.525 155.955 319.215 157.716 318.038 159.57C315.482 163.598 315.133 168.019 315.387 172.686C315.653 177.56 316.213 182.435 316.904 187.265C318.302 197.05 320.411 206.735 323.201 216.218C324.598 220.967 326.248 225.614 327.89 230.281C328.707 232.604 329.66 234.872 330.642 237.129C331.16 238.317 331.69 239.498 332.229 240.677C332.03 239.012 332.03 237.302 331.933 235.647C331.794 233.276 331.616 230.909 331.454 228.54C331.122 223.731 330.826 218.919 330.562 214.106C329.626 196.945 328.938 179.768 328.988 162.579C329.014 153.984 329.189 145.388 329.559 136.801C329.732 132.757 330.068 128.717 330.371 124.679L330.435 123.813C330.704 120.189 331.025 116.556 331.576 112.963C331.413 112.594 331.271 112.221 331.166 111.838L331.128 111.694L331.156 111.699C331.131 111.586 331.122 111.475 331.128 111.365ZM340.758 96.5964C340.781 96.4964 340.923 96.5054 340.948 96.5964C341.576 98.7094 341.354 101.034 340.813 103.16C340.522 104.312 340.108 105.43 339.607 106.508L339.432 106.885C339.003 107.803 338.52 108.749 337.684 109.321C337.336 109.56 336.712 109.575 336.364 109.321L336.186 109.186C336.157 109.163 336.128 109.14 336.1 109.116C335.774 108.843 335.614 108.241 335.764 107.844C336.15 106.819 337.027 106.066 337.633 105.153C338.17 104.342 338.646 103.486 339.04 102.596C339.892 100.67 340.274 98.6274 340.758 96.5964Z" fill="#111111"/>
<path fill-rule="evenodd" clip-rule="evenodd" d="M388.771 44.7615C381.338 25.1995 367.94 10.877 345.353 19.8729C344.705 19.4316 343.86 19.3132 343.05 19.83C330.746 27.5588 321.885 39.9501 318.045 53.9227C315.709 54.3671 313.438 55.1424 311.41 56.4136C307.002 59.1766 304.036 63.5731 301.256 67.8554C300.42 69.1424 301.195 71.2734 302.766 71.5664C303.448 71.6934 304.124 71.7684 304.797 71.7884C304.633 72.3834 304.417 72.9574 304.143 73.4844C303.149 75.3914 305.027 77.4164 306.786 76.8954C306.981 76.9984 307.185 77.0834 307.397 77.1474C307.421 78.2284 307.976 79.6744 309.075 79.8924C310.851 80.2734 313.212 78.9134 312.793 76.9264C313.329 77.0204 313.864 77.0324 314.385 76.9674C314.444 78.0024 314.425 79.0824 314.568 80.0364C315.035 84.5364 319.529 87.5584 323.814 86.1894C324.077 87.5914 324.386 89.5614 325.766 90.3214C327.379 94.8504 330.166 100.018 334.73 102.081C334.323 103.123 334.544 104.39 335.767 105.086C344.121 109.851 354.148 111.463 363.592 109.692C367.367 109.467 371.044 108.614 374.574 106.796C377.148 105.47 379.515 103.787 381.825 102.051C384.136 100.315 386.607 98.6254 388.452 96.3714C390.456 93.9234 391.388 91.0434 391.994 87.9774C394.767 74.0624 393.809 60.3991 388.771 47.1436C382.534 30.7354 395.006 61.1705 388.771 44.7615Z" fill="#FFFEFC"/>
<path fill-rule="evenodd" clip-rule="evenodd" d="M352.838 16.0609C356.642 15.7922 360.515 16.4337 364.137 17.5811C369.915 19.4106 375.221 22.6391 379.58 26.8423C384.072 31.1739 387.395 36.5145 389.415 42.4131C391.852 49.5267 392.216 57.1222 392.902 64.548C393.248 68.2994 393.819 71.9944 394.413 75.7104L394.507 76.2964C395.086 79.9164 395.412 83.5784 394.612 87.1924C393.28 93.1994 389.289 98.2984 384.551 102.066C374.819 109.806 359.668 114.525 348.336 107.402C346.583 106.3 348.244 103.482 349.956 104.631C351.16 105.439 352.436 106.148 353.805 106.637C359.522 108.681 365.801 107.953 371.452 106.052C377.02 104.178 382.363 101.012 386.472 96.7884C390.788 92.3504 393.179 86.8694 392.834 80.6334C392.628 76.9224 391.783 73.2804 391.314 69.6004C390.898 66.3404 390.649 63.063 390.362 59.7901L390.257 58.6128C389.648 51.9446 388.774 45.0934 385.741 39.0406C383.19 33.9483 379.454 29.418 374.963 25.9193C370.26 22.2564 364.644 19.6946 358.751 18.7391C351.821 17.6156 345.187 19.6587 339.406 23.4621C334.279 26.8353 329.871 31.343 326.491 36.4576C324.852 38.9376 323.456 41.5861 322.25 44.3021C321.114 46.8612 320.331 49.5432 319.417 52.1808C320.169 52.1584 320.933 52.1874 321.709 52.2732C325.691 52.7145 329.4 54.7785 331.761 58.0331C334.647 62.0101 333.867 66.8914 334.994 71.4144C335.081 71.7654 334.933 72.1094 334.632 72.3034C332.923 73.4084 330.636 73.4454 328.982 72.2014C327.547 71.1214 326.873 69.1694 327.454 67.4634C327.53 67.2414 327.853 67.2804 327.862 67.5184C327.972 70.4214 330.664 72.6574 333.303 71.2754C332.171 67.3754 332.767 63.0199 330.451 59.4972C326.353 53.2623 317.873 53.0047 311.917 56.5194C308.782 58.3689 306.301 61.1498 304.453 64.2604L303.921 65.1634C303.213 66.3704 302.463 67.7344 302.316 69.0634C302.231 69.8304 302.514 70.5504 303.393 70.1644C304.105 69.8524 304.656 69.1234 305.078 68.4964C305.799 67.4274 307.455 68.3514 306.859 69.4894L306.839 69.5264C305.973 71.0614 305.44 72.7534 305.342 74.5164L305.317 75.0044C305.3 75.3604 305.289 75.8664 305.364 75.8844C305.454 75.9064 306.081 75.1824 306.185 75.0824C306.688 74.5994 307.206 74.2044 307.906 74.0754C308.826 73.9074 309.754 75.0464 308.956 75.7924L308.922 75.8224C308.209 76.4424 308.241 77.6784 309.029 78.2584C310.14 79.0764 311.508 77.7414 311.669 76.6414L311.675 76.6014C311.817 75.4134 313.467 75.3714 313.556 76.6014C313.751 79.2704 310.574 81.5074 308.157 80.1614C307.201 79.6284 306.594 78.6544 306.403 77.6094C306.098 77.7714 305.769 77.8834 305.421 77.9134C304.288 78.0144 303.483 77.2174 303.3 76.1484C303.086 74.9024 303.213 73.5684 303.541 72.2744C302.926 72.4224 302.279 72.3654 301.628 71.9904C299.66 70.8544 300.225 68.3274 300.968 66.6214C304.14 59.3395 310.713 52.732 318.855 52.2075C318.899 50.9227 319.074 49.708 319.358 48.4216C322.143 35.838 331.165 24.1858 342.911 18.7397C346.049 17.2844 349.378 16.3054 352.838 16.0609ZM322.036 66.3274L322.148 66.3024C323.417 66.029 326.756 65.7077 326.354 67.8434C326.335 67.9444 326.189 67.9324 326.163 67.8434C325.768 66.5004 323.09 67.5744 322.309 67.8984C321.231 68.3434 320.167 69.0014 319.287 69.7654C317.36 71.4384 316.069 73.7954 315.872 76.3564C315.677 78.8964 316.414 81.6404 318.246 83.4784C319.144 84.3784 320.29 84.9904 321.577 85.0354C322.734 85.0754 324.012 84.1744 325.079 84.7024C325.29 84.8064 325.456 85.0914 325.437 85.3264C325.401 85.7714 325.202 86.1174 324.906 86.3864C326.693 89.6444 328.155 93.0924 330.435 96.0544C331.579 97.5404 332.875 98.9164 334.342 100.088C335.04 100.645 335.798 101.134 336.58 101.563C337.497 102.067 338.29 102.383 338.944 103.237C339.502 103.965 338.944 105.372 338.024 105.498C335.859 105.793 333.755 104.042 332.165 102.73C330.577 101.419 329.205 99.8024 328.07 98.0874C325.892 94.7924 324.402 90.9064 323.806 86.9744C323.115 87.1944 322.336 87.2614 321.75 87.2624C320.191 87.2664 318.703 86.7054 317.478 85.7574C312.994 82.2874 312.495 75.1634 315.66 70.6714C317.174 68.5214 319.475 66.9334 322.036 66.3274ZM322.064 74.5904C323.104 74.4984 324.143 74.6634 325.12 75.0174L325.523 75.1634C326.374 75.4754 327.28 75.8414 327.895 76.4794C328.834 77.4544 327.899 79.1454 326.561 78.7714C325.082 78.3584 323.88 77.1114 322.401 76.5894C321.08 76.1224 319.583 76.1884 318.41 76.9924C318.255 77.0994 318.051 76.8894 318.152 76.7354C319.05 75.3684 320.466 74.7304 322.064 74.5904Z" fill="#111111"/>
<path fill-rule="evenodd" clip-rule="evenodd" d="M357.819 82.8874C361.44 82.4474 364.951 83.5574 368.491 84.1164C370.36 84.4114 372.232 84.6314 374.124 84.7134C374.504 84.7304 374.885 84.7394 375.266 84.7474C375.301 84.4124 375.489 84.1044 375.895 83.9194C376.728 83.5424 377.395 83.3714 378.31 83.4084C379.147 83.4414 379.987 83.5274 380.812 83.6784C382.309 83.9524 383.813 84.5764 384.908 85.6584C387.443 88.1634 387.057 92.1874 385.099 94.9164C381.052 100.554 373.667 100.816 367.343 100.742L366.759 100.735C361 100.652 352.76 101.511 350.144 94.9574C349.182 92.5464 349.315 89.7524 350.494 87.4404C351.899 84.6834 354.856 83.2474 357.819 82.8874ZM375.808 92.2754L375.756 92.2774C373.101 92.3794 370.446 92.4514 367.79 92.4984C367.869 93.1814 367.95 93.8644 368.043 94.5454C368.116 95.0814 368.194 95.6164 368.275 96.1514C368.309 96.3774 368.435 96.7284 368.4 96.9534L368.387 97.0414C368.523 97.1034 368.647 97.2024 368.739 97.3474C368.771 97.3974 368.794 97.4474 368.817 97.4974C370.88 97.5134 373.1 97.4734 375.202 97.0984L375.207 97.0524C375.245 96.7844 375.356 96.6034 375.505 96.4794C375.653 95.6224 375.639 94.7094 375.696 93.8594C375.732 93.3314 375.771 92.8034 375.808 92.2754ZM365.76 92.5354C363.847 92.5674 361.932 92.5924 360.019 92.5694L359.15 92.5554C359.333 93.5404 359.533 94.5214 359.699 95.5124C359.872 96.5454 358.963 97.2024 358.177 97.1754C358.265 97.1904 358.353 97.2054 358.441 97.2174C360.899 97.5654 363.451 97.4724 365.945 97.4704C365.81 96.6864 365.865 95.8024 365.845 95.1484L365.841 95.0474C365.803 94.2094 365.776 93.3724 365.76 92.5354ZM352.761 92.3544C352.827 92.8664 352.956 93.3674 353.15 93.8334C353.967 95.8044 355.84 96.7244 357.821 97.1114C357.477 96.9924 357.204 96.7074 357.135 96.2184C356.964 95.0034 356.902 93.7674 356.897 92.5334C355.516 92.5204 354.126 92.4914 352.761 92.3544ZM383.01 91.9334C382.027 92.1654 380.884 92.0594 379.919 92.1034C379.015 92.1444 378.111 92.1794 377.208 92.2164C377.25 92.8334 377.292 93.4504 377.337 94.0674C377.395 94.8644 377.4 95.7074 377.553 96.5014C379.372 95.8804 381.002 94.8844 382.224 93.2924C382.529 92.8954 382.802 92.4294 383.01 91.9334ZM357.403 86.1204C355.766 86.5084 354.217 87.3274 353.385 88.8264C352.891 89.7154 352.673 90.7684 352.715 91.8074C354.098 91.6464 355.506 91.5854 356.906 91.5344C356.911 91.2824 356.917 91.0304 356.924 90.7784L356.946 90.1344C356.984 88.9044 357.003 87.3614 357.403 86.1204ZM365.875 86.2704L365.154 86.1894C363.153 85.9614 361.153 85.7224 359.151 85.8594C358.862 85.8794 358.568 85.9114 358.273 85.9544C358.627 87.2314 358.597 88.7314 358.745 89.9954C358.802 90.4844 358.874 90.9684 358.954 91.4514L359.301 91.4354C361.449 91.3194 363.598 91.2474 365.748 91.1624C365.747 90.7584 365.75 90.3544 365.756 89.9504L365.764 89.5464C365.788 88.5144 365.722 87.3514 365.875 86.2704ZM375.925 86.1074C373.829 86.4454 371.663 86.5174 369.604 86.5194C368.781 86.5214 367.959 86.4704 367.138 86.3974C367.191 86.8354 367.219 87.2774 367.26 87.7094C367.341 88.5814 367.433 89.4524 367.534 90.3214L367.624 91.0834C370.266 90.9634 372.907 90.8334 375.548 90.6994L375.921 90.6794L376.026 89.2164C376.097 88.2414 376.175 87.2664 376.285 86.2954L376.203 86.2654C376.105 86.2254 376.013 86.1704 375.925 86.1074ZM376.835 86.4704C376.951 87.8494 377.015 89.2344 377.1 90.6154L378.841 90.5224C379.131 90.5064 379.421 90.4904 379.711 90.4734C380.84 90.4084 382.289 90.0664 383.405 90.3854C383.49 89.3714 383.2 88.3834 382.285 87.7014C380.678 86.5044 378.633 86.9304 376.835 86.4704ZM370.887 74.1414C373.48 72.6554 379.985 71.1374 380.397 75.8054C380.586 77.9534 378.99 79.7334 377.126 80.5274L377.056 80.5564C375.308 81.2754 372.209 82.0874 370.696 80.5284C369.437 79.2304 371.107 76.9044 372.672 77.9674C373.476 78.5134 375.168 78.1104 376.066 77.8514L376.122 77.8344C377.09 77.5494 378.381 76.6384 377.98 75.4464C377.626 74.3914 376.119 74.1984 375.174 74.1644C373.765 74.1134 372.393 74.4404 370.997 74.5474C370.776 74.5644 370.708 74.2434 370.887 74.1414ZM381.626 66.6354C385.145 66.4704 387.334 70.3144 386.525 73.4634C386.385 74.0074 385.777 74.5404 385.191 74.4794L385.043 74.4654C384.968 74.4584 384.892 74.4494 384.823 74.4304C384.266 74.2754 383.767 73.6964 383.808 73.0954L383.818 72.9204C383.9 71.4324 383.739 69.7184 381.972 69.3584C380.473 69.0524 379.636 70.4964 379.618 71.8244C379.615 72.0604 379.35 72.2254 379.142 72.0984C378.058 71.4384 377.87 70.1264 378.284 68.9964C378.809 67.5644 380.122 66.7064 381.626 66.6354ZM355.513 67.4604C358.074 66.6054 360.837 67.9704 362.077 70.2354C362.512 70.3614 362.946 70.6974 362.886 71.2104C362.798 71.9494 362.667 72.4154 362.155 72.9754C361.354 73.8524 359.854 73.4044 359.521 72.3254L359.507 72.2764C359.128 70.8814 357.594 69.9614 356.196 70.4494C354.563 71.0194 354.61 72.7454 353.465 73.7504C353.33 73.8684 353.169 73.8874 353.007 73.8094C351.791 73.2214 352.009 71.4504 352.443 70.4374C353.012 69.1084 354.118 67.9254 355.513 67.4604ZM352.026 59.6807C354.101 57.5625 359.512 55.5129 360.931 59.4243C361.202 60.1693 360.626 61.1739 359.851 61.3284C358.581 61.5812 357.454 61.0297 356.193 61.1286C355.172 61.2092 354.107 61.5505 353.291 62.1833C351.03 63.9358 350.532 66.9004 348.957 69.1304C348.88 69.2394 348.731 69.1934 348.717 69.0654C348.358 65.8181 349.753 62.0005 352.026 59.6807ZM379.088 57.5955C380.465 57.109 382.024 57.1506 383.408 57.5822C384.803 58.0172 386.083 58.8431 387.069 59.9223C387.517 60.4122 387.931 60.9528 388.263 61.5283C388.439 61.8333 388.625 62.4633 388.825 62.8385C389.91 63.465 390.373 64.8927 389.402 65.9084L389.359 65.953L389.229 66.0819C388.707 66.5984 387.919 66.8224 387.207 66.6164C385.612 66.1544 385.418 64.8983 384.866 63.5647C384.502 62.6838 383.877 61.9043 383.12 61.3318C381.33 59.9791 378.394 59.5482 376.239 60.1856C376.125 60.2196 375.99 60.0734 376.072 59.9673C376.48 59.4381 376.715 59.0038 377.262 58.5768C377.817 58.1436 378.423 57.8305 379.088 57.5955Z" fill="#111111"/>
<path fill-rule="evenodd" clip-rule="evenodd" d="M385.295 42.5006C386.516 42.0819 387.49 43.3523 387.255 44.4596C386.979 45.7636 385.618 46.8102 384.716 47.7294C383.769 48.6974 382.804 49.6464 381.802 50.5594C379.89 52.3054 377.909 53.9495 375.819 55.4817L375.18 55.9501C373.265 57.352 371.355 58.7213 369.304 59.9349C368.193 60.5901 367.071 61.2241 365.934 61.8349C365.529 62.0526 365.034 62.3885 364.525 62.6381C366.386 64.0752 367.819 66.2694 368.129 68.3124C368.898 73.3894 365.628 78.0944 361.014 79.9644C358.713 80.8964 356.152 81.1674 353.693 80.8864C351.192 80.6004 348.657 79.8604 347.032 77.8114C345.589 75.9914 345.069 73.6684 344.966 71.3884C344.917 70.3054 344.928 69.2404 345.156 68.2834C344.161 68.2914 343.166 68.2874 342.179 68.2984C339.741 68.3214 337.299 68.3324 334.859 68.2644C332.343 68.1924 329.839 68.0804 327.331 67.8564C326.231 67.7574 325.136 67.5944 324.042 67.4374C322.979 67.2874 321.807 67.2304 320.814 66.7954C320.746 66.7674 320.774 66.6704 320.833 66.6514C321.891 66.3094 323.093 66.3704 324.196 66.3024L325.271 66.2374C326.166 66.1844 327.061 66.1354 327.959 66.1061C330.033 66.0379 332.105 66.0211 334.179 65.9855L335.068 65.9689C337.508 65.9203 339.948 65.8929 342.388 65.8147C343.4 65.783 344.414 65.7238 345.431 65.6688C345.549 65.4002 345.722 65.155 345.889 64.9164C346.388 64.2021 347.021 63.5722 347.679 63.0016C349.024 61.8263 350.539 60.9536 352.229 60.3682C353.904 59.79 356.354 59.5032 358.126 59.5405C359.898 59.5778 362.423 59.8278 363.234 61.277C363.319 61.427 364.863 61.1375 365.321 60.7864C366.393 59.9687 367.445 59.1275 368.478 58.2652C370.396 56.6611 372.369 55.0823 374.186 53.3661C376.06 51.595 377.919 49.7943 379.702 47.9344C380.598 47.0024 381.492 46.0682 382.36 45.1129C383.248 44.1386 384.01 42.9381 385.295 42.5006Z" fill="#111111"/>
<path fill-rule="evenodd" clip-rule="evenodd" d="M159.565 218.932C158.714 214.121 157.933 209.297 157.224 204.463C156.887 202.168 156.558 199.87 156.263 197.569C156.056 195.957 155.741 194.113 156.838 192.919C158.381 191.239 159.782 189.8 159.971 187.393C160.149 185.128 159.383 182.659 158.904 180.46C157.9 175.849 156.651 171.295 155.27 166.785C153.867 162.202 152.328 157.662 150.767 153.131C149.308 148.895 147.906 144.621 146.005 140.556C142.399 132.843 136.298 127.131 128.757 123.317C126.882 122.368 123.056 118.982 121.097 118.224C119.296 117.527 119.302 119.562 117.53 118.795C116.112 118.182 114.793 117.365 113.999 115.996C113.138 114.51 110.977 112.431 110.648 110.701C109.951 107.034 110.706 103.912 108.09 101.152C105.767 98.701 102.645 97.022 99.4152 96.121C92.3092 94.138 82.8322 95.524 78.5442 102.13C76.4972 105.285 75.7812 109.098 73.0182 111.672C70.6052 113.92 71.1452 115.457 68.0202 116.616C67.8432 116.682 63.0456 115.652 62.8686 115.718C59.4498 114.986 56.1823 117.035 53.0458 118.224C48.3698 119.996 43.918 122.302 39.7355 125.044C31.3019 130.572 24.0787 137.75 18.1237 145.873C12.1195 154.062 7.46079 163.242 4.14369 172.836C3.33809 175.166 2.61449 177.525 1.97629 179.907C1.61899 181.239 1.23729 182.622 1.67229 183.987C2.02809 185.103 2.81949 185.934 3.74879 186.604C5.00859 187.512 7.53559 188.103 7.48639 189.929C7.44879 191.318 6.97789 192.779 6.74799 194.151C6.47439 195.786 6.24959 197.429 6.02479 199.071C5.00229 206.542 4.20639 214.055 3.85449 221.59C3.50799 229.009 3.22049 236.579 3.73489 243.996C3.76889 244.485 3.91469 244.934 4.14979 245.313C3.93029 245.397 3.91339 245.807 4.18659 245.865C4.37799 245.905 4.56899 245.946 4.76039 245.986C5.15799 246.287 5.65379 246.472 6.22449 246.49C6.61129 246.502 6.99789 246.52 7.38429 246.539C11.462 247.392 15.5391 248.198 19.67 248.808C24.6914 249.549 29.7276 250.153 34.7794 250.645C45.16 251.654 55.4589 251.319 65.8532 250.775C76.2312 250.232 86.6042 250.105 96.9932 250.375C107.391 250.646 117.785 251.098 128.186 251.283C139.805 251.49 151.407 251.173 162.993 250.249C164.581 250.122 165.564 248.858 165.251 247.279C163.374 237.823 161.247 228.43 159.565 218.932Z" fill="#FFFEFC"/>
<path fill-rule="evenodd" clip-rule="evenodd" d="M59.6272 115.485C60.7017 115.438 61.7973 115.612 62.8693 115.718C62.9627 115.727 62.9982 115.871 62.8929 115.893C60.9745 116.294 59.077 116.842 57.1928 117.4L56.3861 117.638C54.2614 118.267 52.199 118.916 50.1421 119.754C46.0427 121.426 42.1492 123.682 38.5659 126.273C24.7676 136.254 14.781 151.364 8.47889 167.008C6.76739 171.257 5.31719 175.611 4.14259 180.039C3.85699 181.116 3.58819 182.197 3.33339 183.282C3.25859 183.6 2.93269 184.415 3.11139 184.74C3.26939 185.028 3.88379 185.206 4.16919 185.355L5.13279 185.855C7.01249 186.824 10.1434 188.417 10.4574 188.573L10.9471 188.814C18.9564 192.742 27.5142 196.073 36.5272 196.303L36.5977 195.533C36.9996 191.276 37.5269 186.997 38.6779 182.871C38.7398 182.649 39.0218 182.724 39.0476 182.921C39.6888 187.806 39.4839 192.728 39.2601 197.635C38.864 206.326 38.3379 215.013 37.8704 223.7C37.6363 228.046 37.3338 232.39 37.0606 236.733C36.787 241.086 36.6985 245.542 36.0738 249.859C35.9346 250.821 34.8081 251.344 33.955 251.243C33.011 251.13 32.2849 250.299 32.2805 249.345C32.2691 246.831 32.5849 244.286 32.7605 241.778C32.9272 239.395 33.1061 237.013 33.2895 234.631C33.9596 225.938 34.7305 217.255 35.4436 208.566C35.6963 205.484 35.9692 202.405 36.2502 199.326C26.7024 199.018 17.7825 195.48 9.27299 191.347C9.14979 194.144 8.85239 196.937 8.56439 199.723C7.76059 207.498 7.05169 215.269 6.52129 223.068C6.25339 227.007 6.05839 230.951 5.88849 234.895C5.80509 236.834 5.73699 238.773 5.68479 240.712C5.66739 241.359 5.65159 242.005 5.63759 242.652L5.60859 244.133C5.58489 245.071 5.48949 245.941 4.70009 246.624C3.89839 247.318 2.81539 247.355 2.02189 246.624C0.959589 245.645 1.14749 244.312 1.17889 242.998C1.20509 241.89 1.23659 240.781 1.27319 239.673C1.34649 237.457 1.44009 235.241 1.55389 233.026C1.95239 225.283 2.74859 217.571 3.78909 209.89L4.19519 206.925C4.95379 201.413 5.78649 195.775 7.48209 190.466C6.82189 190.137 6.16359 189.806 5.50779 189.474C4.34459 188.885 3.14179 188.332 2.01109 187.682C1.11409 187.166 0.340388 186.458 0.0906875 185.414C-0.187812 184.25 0.238089 182.978 0.520989 181.843L0.54559 181.743C0.82289 180.6 1.12169 179.462 1.43689 178.329C2.71509 173.735 4.29559 169.23 6.14519 164.835C9.84869 156.036 14.6291 147.677 20.4683 140.119C25.7244 133.315 31.9336 127.146 39.2109 122.518C42.7686 120.256 46.5601 118.398 50.5697 117.085C52.4439 116.471 54.483 115.937 56.4453 115.718C57.5037 115.599 58.5636 115.531 59.6272 115.485ZM78.6652 101.542C79.9422 100.171 82.4792 101.59 81.8662 103.407C80.4232 107.68 78.1272 111.578 74.5432 114.386C71.1742 117.026 67.1572 118.74 62.8308 118.374C62.7974 118.371 62.7684 118.363 62.7429 118.351L63.1157 118.856C66.0432 122.817 69.1302 126.724 72.8522 129.961C80.4352 136.557 90.7602 140.115 100.73 137.584C108.574 135.593 115.484 129.388 117.517 121.48C117.225 121.611 116.879 121.656 116.499 121.573C114.873 121.22 113.263 119.509 112.214 118.282C111.08 116.955 110.194 115.522 109.544 113.902C108.356 110.938 107.974 107.121 109.597 104.25C109.798 103.896 110.26 104.094 110.299 104.44L110.361 104.979C110.673 107.67 111.063 110.274 112.332 112.727C112.952 113.927 113.696 115.099 114.602 116.104C115.087 116.642 115.612 117.156 116.179 117.607C116.732 118.047 117.401 118.365 117.897 118.869L117.987 118.966L117.99 118.948C118.115 117.883 118.862 117.413 119.593 117.443C120.3 117.471 121.131 117.783 121.452 117.932L121.483 117.946C126.416 120.315 130.96 123.403 135.236 126.829C144.079 133.915 150.705 143.177 153.915 154.085C155.49 159.438 156.395 164.954 157.349 170.444L157.936 173.808C158.827 178.877 159.822 184.045 161.833 188.76C162.353 189.979 161.952 191.123 160.677 191.603C159.084 192.202 157.486 192.782 155.885 193.354C156.671 196.728 157.15 200.219 157.739 203.609C158.991 210.816 160.525 217.977 161.841 225.174C162.513 228.854 163.12 232.547 163.792 236.227C164.115 237.999 164.453 239.769 164.781 241.541C164.958 242.496 165.118 243.454 165.287 244.411L165.316 244.57C165.413 245.074 165.535 245.596 165.396 246.101C165.238 246.677 164.788 247.084 164.387 247.497C164.057 247.837 163.58 247.839 163.175 247.654L163.042 247.592C162.319 247.254 161.753 246.917 161.497 246.101C161.335 245.585 161.276 245.003 161.17 244.471C160.967 243.452 160.774 242.431 160.592 241.407C160.227 239.358 159.872 237.308 159.524 235.256L159.2 233.335C158.087 226.714 157.029 220.052 156.495 213.36C156.257 210.392 156.006 207.426 155.753 204.459L155.562 202.234C155.321 199.418 155.027 196.531 154.985 193.676L154.028 194.016L149.357 195.668C148.199 196.078 146.724 196.917 145.477 196.764C144.867 196.689 144.402 196.497 144.043 196.148C144.473 202.221 145.055 208.283 145.831 214.314C146.537 219.802 147.32 225.283 148.245 230.738C148.702 233.44 149.173 236.139 149.684 238.831C149.939 240.177 150.203 241.521 150.475 242.864C150.61 243.534 150.771 244.204 150.877 244.88C150.998 245.653 150.785 246.129 150.353 246.766C149.998 247.288 149.288 247.557 148.713 247.196C147.951 246.718 147.554 246.303 147.33 245.432C147.126 244.641 147.002 243.815 146.845 243.014C146.554 241.535 146.273 240.054 146.001 238.572C145.433 235.471 144.91 232.362 144.443 229.244C142.796 218.261 141.751 207.185 141.223 196.091C140.963 190.618 140.882 185.14 140.929 179.661C140.952 176.852 141.044 174.036 141.243 171.235C141.444 168.399 141.862 165.62 142.235 162.811C142.249 162.713 142.388 162.707 142.394 162.811C142.571 165.96 142.848 169.105 142.984 172.262C143.114 175.275 143.17 178.292 143.273 181.305C143.409 185.266 143.597 189.23 143.845 193.19C144.296 192.698 144.974 192.414 145.653 192.525C146.637 192.318 147.696 191.802 148.634 191.488L152.169 190.307C154.027 189.686 155.886 189.069 157.751 188.471C156.083 182.859 154.941 177.163 153.966 171.385L153.531 168.786C152.67 163.67 151.741 158.552 150.182 153.598C148.542 148.39 146.088 143.548 142.833 139.163C139.625 134.842 135.721 131.037 131.702 127.478C128.261 124.431 124.58 121.68 121.071 118.717C121.107 118.913 121.115 119.129 121.083 119.367C120.337 124.83 117.488 129.918 113.517 133.702C105.541 141.305 93.7342 142.882 83.5252 139.317C73.6502 135.869 64.9189 127.702 61.8342 117.596C61.7814 117.423 62.0129 117.354 62.1059 117.481C62.277 117.716 62.449 117.95 62.6212 118.185C62.6096 118.092 62.6579 117.99 62.7729 117.946C66.3722 116.556 69.9062 114.584 72.6042 111.795C73.9192 110.435 75.0672 108.895 75.9722 107.233C76.4062 106.438 76.7962 105.614 77.1072 104.762L77.1862 104.542C77.5632 103.475 77.8782 102.387 78.6652 101.542Z" fill="#111111"/>
<path fill-rule="evenodd" clip-rule="evenodd" d="M97.7272 13.279C109.723 13.279 124.747 26.9683 129.144 32.7937C132.841 37.6914 132.318 62.9225 132.318 77.89C132.318 81.02 130.904 86.944 130.39 89.939C128.509 100.911 120.311 110.113 104.086 110.113C90.8752 110.113 80.7082 105.927 70.8772 95.22C68.6342 92.777 57.6802 101.522 55.44 98.373C49.5886 98.373 44.6959 43.6801 56.1843 27.2754C67.6732 10.8708 85.7312 13.279 97.7272 13.279Z" fill="#FFFEFC"/>
<path fill-rule="evenodd" clip-rule="evenodd" d="M61.6725 17.1313C68.6042 10.8225 77.8392 7.78746 87.1552 8.01156C91.9812 8.12776 96.7892 9.04716 101.346 10.6217C103.626 11.4122 105.834 12.4436 107.944 13.6102C108.705 14.0297 109.406 14.5212 110.081 15.0431L110.249 15.1742H110.251C112.062 15.8252 113.678 16.994 115.144 18.3614C118.083 18.1268 121.045 18.391 123.886 19.2977C127.841 20.5615 131.503 22.8758 134.074 26.1623C137.069 29.9884 138.064 34.6295 137.709 39.4204L137.643 40.2343C137.292 44.4665 136.663 49.9102 133.191 52.691C132.927 52.9024 132.635 53.063 132.333 53.1602C134.57 56.9941 136.406 61.2507 137.505 65.5496C141.698 81.9689 138.474 99.093 133.431 114.919C133.017 116.223 131.046 117.089 130.043 115.815C128.251 113.537 125.648 111.799 122.72 111.474C120.914 111.273 119.116 111.637 117.409 110.817C116.739 110.493 116.093 109.965 115.628 109.322C112.746 110.415 109.643 110.931 106.565 110.804C101.513 110.597 96.1132 108.847 92.6382 105.009C92.0802 104.393 91.9392 103.701 92.0672 103.077C92.5032 102.922 92.9512 102.806 93.4112 102.733C97.8192 105.332 102.676 107.068 107.897 107.177C110.914 107.24 113.856 106.818 116.303 104.934C116.832 104.526 117.319 104.074 117.769 103.589C122.883 100.298 126.488 94.708 128.203 88.72C129.8 83.136 129.603 77.322 129.054 71.594L128.764 68.572C128.342 64.1357 127.95 59.6864 127.84 55.2314L127.873 55.2298C128.953 55.16 128.961 53.4686 127.873 53.5389C125.059 53.7211 122.267 53.2593 119.462 53.4605C119.438 52.1339 119.343 50.8132 118.953 49.5336C118.73 48.8026 117.458 48.6584 117.323 49.5336C117.143 50.7045 117.077 51.8689 117.057 53.045C112.859 52.9892 108.665 52.6358 104.466 52.781C103.692 51.9547 103.445 50.4894 103.083 49.47C103.03 49.32 102.977 49.172 102.922 49.022C102.604 50.4786 102.153 51.9033 101.559 53.298L100.529 53.3015C94.6872 53.3289 88.7252 53.5036 83.0202 54.7174C82.6242 54.4129 82.3882 53.8815 82.3242 53.399C81.9102 50.2593 81.3192 47.203 80.2732 44.2109L80.1232 43.7887C80.1112 43.7537 80.0982 43.7165 80.0842 43.6773C79.3132 44.9228 78.3922 46.0838 77.3892 47.1648C76.7972 47.8021 76.1772 48.4114 75.5402 49.0034C74.9222 49.6903 74.2832 50.3668 73.6632 51.0558C73.6882 51.1811 73.7092 51.3084 73.7262 51.4379C73.9162 52.8677 73.9352 54.3178 73.7962 55.7531C73.5452 58.3478 72.8132 60.8481 71.6372 63.1611L71.6002 63.3927C71.4212 64.4766 71.1672 65.5969 70.5732 66.4131C71.3142 67.243 71.8852 68.235 72.2152 69.337C72.5102 70.318 71.1532 71.168 70.4502 70.365C69.8912 69.727 69.2702 69.2 68.5882 68.779C68.5452 68.837 68.4672 68.866 68.3802 68.817C66.4812 67.762 63.2549 68.082 61.3577 69.075C58.9979 70.309 58.0768 72.843 58.3387 75.411C58.5901 77.865 59.6634 80.7329 61.7444 81.991C62.6993 82.5669 63.443 82.616 64.457 82.339C64.7813 82.251 65.1832 81.981 65.3562 81.847L65.5252 81.711C66.1902 81.185 66.8092 80.825 67.5942 80.811C68.3972 80.561 69.2032 80.908 69.5102 81.75L69.5292 81.805C69.6732 82.234 69.9352 82.772 69.8782 83.428C69.8192 84.129 69.4982 84.768 69.0182 85.281C68.9362 85.3699 68.8472 85.459 68.7562 85.541C77.0172 94.488 78.0772 108.428 73.8412 119.605C73.6582 120.095 73.4612 120.579 73.2562 121.059C72.5482 122.703 69.8232 122.194 69.4772 120.564C69.3732 120.076 69.2592 119.59 69.1342 119.108C68.9052 118.217 68.6432 117.335 68.3472 116.466L68.2342 116.14C67.9832 115.422 67.7482 114.697 67.4952 113.978L67.4702 113.896C67.4602 113.864 67.4492 113.826 67.4382 113.784L67.0092 114.72L65.7052 117.546C65.0952 118.865 63.1576 118.148 63.0855 116.877L63.0838 116.834C63.0775 116.599 63.069 116.367 63.0542 116.136C62.9613 114.41 62.6634 112.731 62.1901 111.089L62.0194 111.301C59.477 114.446 56.4932 117.393 52.4 118.119C51.3732 118.3 50.2113 117.227 50.9169 116.189C51.2085 115.76 51.4894 115.32 51.7556 114.874C51.5254 114.767 51.3077 114.655 51.107 114.541C49.5542 113.668 48.2613 112.425 47.1923 111.015C44.9254 108.027 44.1141 104.265 43.9155 100.583C43.7042 96.692 44.0465 92.59 45.1092 88.836C45.5697 87.213 46.193 85.655 46.9134 84.144C46.8627 84.009 46.8141 83.874 46.7655 83.738C45.988 81.57 45.35 79.353 44.8197 77.11C43.7507 72.583 43.1761 67.912 43.1063 63.2606C42.9796 54.9271 44.4162 46.4604 47.4437 38.6891C50.5704 30.6747 55.2732 22.954 61.6725 17.1313ZM57.7792 89.992C57.205 89.088 55.7684 89.903 56.3016 90.814L56.3214 90.846C57.232 92.281 57.6588 93.913 58.1827 95.513C58.5186 96.542 60.1517 96.102 59.8116 95.063L59.699 94.715C59.1776 93.093 58.702 91.444 57.7792 89.992ZM62.7794 72.729L63.1608 72.544C64.364 71.97 65.4182 71.579 66.8402 72.08C68.7432 72.75 70.7822 74.883 69.4952 76.952C69.0222 77.715 68.1812 78.019 67.3152 77.84C65.8552 77.537 65.4782 76.221 64.7371 75.141L64.6096 74.958C64.1578 74.305 63.5865 73.402 62.8343 73.145C62.6632 73.086 62.5913 72.82 62.7794 72.729ZM63.8528 28.7981L63.9757 28.688C64.7933 27.9652 63.5933 26.7731 62.7799 27.4917C59.0574 30.7825 57.7644 35.9331 55.8334 40.3228C55.4003 41.3098 56.856 42.1721 57.2933 41.1767C59.1352 36.9878 60.3579 31.977 63.8528 28.7981ZM108.587 27.3586C107.614 26.9201 106.763 28.3362 107.698 28.8024L107.733 28.819C111.02 30.3048 112.419 33.6695 113.758 36.7933C114.185 37.7909 115.641 36.9307 115.218 35.9415L114.977 35.381C113.579 32.1619 111.949 28.8806 108.587 27.3586ZM113.739 25.3254C112.708 24.9682 112.266 26.5998 113.289 26.957C116.075 27.9271 117.987 30.0195 119.599 32.412C120.204 33.3081 121.668 32.4627 121.057 31.5581C119.185 28.781 116.963 26.4498 113.739 25.3254Z" fill="#111111"/>
<path fill-rule="evenodd" clip-rule="evenodd" d="M108.081 95.272C106.661 94.693 105.394 93.7259 104.467 92.4909C104.145 92.0609 104.062 91.608 104.129 91.193C104.205 90.727 104.481 90.304 104.857 90.021C105.234 89.737 105.706 89.596 106.162 89.6679C106.559 89.7299 106.953 89.947 107.266 90.397L107.331 90.4869C107.882 91.2329 108.599 91.8439 109.417 92.2389C110.205 92.6189 111.087 92.796 111.999 92.693C113.737 92.497 114.934 91.5569 116.207 90.2799C116.365 90.1189 116.523 89.953 116.681 89.784C116.781 89.631 116.921 89.532 117.075 89.481C117.246 89.423 117.44 89.4269 117.618 89.4889C117.789 89.5479 117.942 89.662 118.045 89.813C118.142 89.956 118.198 90.1329 118.18 90.3369C118.063 91.6589 117.372 92.84 116.39 93.7669C115.299 94.7969 113.853 95.509 112.492 95.759C110.993 96.034 109.465 95.837 108.081 95.272ZM113.2 74.8639C114.795 75.8339 117.226 78.0959 115.51 80.5009C113.489 82.622 110.581 80.191 109.148 79.091C107.819 78.239 106.325 80.431 107.558 81.426C117.915 89.097 122.119 75.118 114.007 73.7239C113.113 73.57 112.782 74.5639 113.2 74.8639ZM94.6402 65.9409C94.8162 63.7521 98.1482 63.2549 98.4802 65.4209C98.7762 67.3609 98.4272 69.143 97.5532 70.89C96.7192 72.559 94.6212 71.781 94.4622 70.261C94.2492 68.224 94.5302 67.302 94.6402 65.9409ZM120.005 64.9718C120.47 64.3632 121.141 63.9476 121.944 64.1825C124.455 64.9165 123.715 68.483 122.833 70.218C122.354 71.161 120.805 71.4 120.105 70.57C118.964 69.217 118.418 66.5136 119.868 65.1805C119.908 65.1116 119.952 65.042 120.005 64.9718ZM97.5182 56.3634L97.9152 56.2939C99.1422 56.0816 100.667 55.8776 101.535 56.8645C101.996 57.3878 102.154 58.3603 101.535 58.8612C100.447 59.7425 99.2432 59.4011 97.9392 59.4757C96.8642 59.5374 95.8312 59.7153 94.7962 60.0114C92.5242 60.6609 90.6732 61.8465 88.7332 63.1485C88.4792 63.3192 88.2192 62.9936 88.3402 62.7554C89.4602 60.561 91.6302 58.7584 93.8042 57.6596C94.9652 57.0731 96.2342 56.5865 97.5182 56.3634ZM117.716 55.3803L118.02 55.4425C121.324 56.1333 125.616 57.5132 127.18 60.7594C127.24 61.2184 127.177 61.3169 127.126 61.3812L127.109 61.4026C127.066 61.4575 127.033 61.5331 126.834 61.5956C126.779 61.5824 126.723 61.5685 126.667 61.5537C125.949 61.3657 125.382 61.1066 124.833 60.8379L124.237 60.5445C123.546 60.2056 122.849 59.879 122.11 59.6379C120.534 59.1234 118.912 58.7611 117.266 58.5676C116.909 58.5257 116.565 58.4052 116.294 58.1986C116.037 58.0026 115.84 57.7312 115.75 57.3704C115.634 56.9036 115.668 56.55 115.918 56.1288C116.106 55.8125 116.376 55.5933 116.685 55.4674C117 55.3391 117.359 55.3088 117.716 55.3803Z" fill="#111111"/>
<path fill-rule="evenodd" clip-rule="evenodd" d="M179.436 64.1122C176.057 67.196 178.228 74.923 179.546 72.834C179.742 70.9 180.346 67.194 182.306 66.4438C196.721 65.8288 193.744 101.485 166.892 97.096C149.784 95.941 131.714 71.155 115.625 86.239C98.1452 71.994 78.4072 93.349 60.4066 96.274C45.771 101.009 23.8997 92.314 27.8384 74.265C28.8223 68.968 36.144 62.9094 40.6281 68.284C41.9528 69.561 40.27 74.237 41.6627 73.271C43.8307 70.875 43.2658 67.048 41.2621 64.6617C37.9435 60.7099 32.028 62.4387 28.5869 65.2296C13.0623 80.508 31.7608 103.571 50.4745 102.048C70.9812 104.557 98.8692 76.047 112.965 89.897C114.402 91.309 117.103 91.31 118.353 89.898C130.337 76.36 153.466 104.028 170.172 102.053C187.94 103.671 202.16 82.218 191.905 67.05C189.35 63.1936 183.209 60.2872 179.436 64.1122Z" fill="#111111"/>
<path fill-rule="evenodd" clip-rule="evenodd" d="M271.55 142.868C269.715 142.214 267.947 141.458 266.336 140.347C261.691 136.888 258.663 131.684 255.802 126.753C251.771 119.581 248.9 111.939 246.915 103.967C246.062 100.542 245.772 96.5697 243.834 93.5337C239.442 87.1747 226.561 87.9987 219.721 89.1147C215.141 89.9257 214.194 95.0537 213.154 98.8477C212.288 102.001 211.721 105.189 211.245 108.42C210.112 109.165 208.834 109.77 207.615 110.297C194.336 114.371 192.002 121.923 186.929 133.589C178.362 150.546 155.115 157.185 151.604 177.252C149.341 190.501 155.775 202.965 162.408 213.979C168.586 226.009 177.21 231.783 190.944 228.941C203.826 226.05 216.206 221.214 228.862 217.477C234.991 215.97 241.111 212.048 247.559 213.415C260.844 216.4 274.494 217.804 288.11 217.416C307.226 218.19 307.223 199.835 305.261 185.621C303.887 163.501 292.734 149.297 271.55 142.868Z" fill="#FFFEFC"/>
<path fill-rule="evenodd" clip-rule="evenodd" d="M272.827 174.876C274.425 175.933 275.768 177.535 276.847 179.222C272.344 178.753 267.849 178.213 263.365 177.598C263.952 177.222 264.544 176.855 265.15 176.509C267.362 175.262 270.358 173.243 272.827 174.876ZM198.021 188.191C197.196 187.868 196.876 186.609 196.555 185.888C195.547 183.626 194.627 181.326 193.669 179.041C197.304 178.005 200.838 176.855 204.603 176.303C208.652 175.709 212.76 175.565 216.846 175.699C225.122 175.969 233.322 177.322 241.458 178.773C249.586 180.222 257.712 181.614 265.897 182.707C273.915 183.778 281.958 184.561 290.017 185.249C291.583 185.383 294.193 185.946 295.452 184.713C296.449 183.737 296.482 181.937 295.234 181.143C294.457 180.648 293.331 180.641 292.444 180.527C291.326 180.383 290.203 180.287 289.078 180.213C288.62 180.182 288.162 180.154 287.703 180.127C291.383 178.739 295.226 177.982 299.215 178.193C299.441 179.564 300.457 180.974 301.014 182.105C301.985 184.079 302.742 186.077 303.239 188.223C304.278 192.71 304.324 197.366 304.03 201.942C303.761 205.758 303.181 209.978 300.19 212.68C297.925 214.726 294.729 215.483 291.765 215.722C288.319 215.998 284.82 215.703 281.403 215.241C276.611 214.592 271.796 213.735 267.098 212.586C257.998 210.361 249.276 206.821 241.229 202.021C237.305 199.68 233.56 197.046 229.582 194.795C225.529 192.5 221.215 190.72 216.686 189.614C211.618 188.377 206.319 187.849 201.11 188.154C200.206 188.207 198.9 188.535 198.021 188.191ZM192.147 185.894C192.679 187.623 193.087 189.597 194.224 191.05C195.35 192.49 197.049 192.998 198.808 193.126C200.93 193.28 203.077 193.181 205.204 193.26C209.565 193.423 213.867 194.131 218.037 195.431C221.922 196.643 225.529 198.533 229.004 200.629C232.217 202.568 235.335 204.65 238.549 206.583C237.694 206.975 236.848 207.4 235.998 207.769C234.214 208.544 232.42 209.291 230.617 210.02C227.063 211.457 223.493 212.86 219.887 214.163C212.616 216.789 205.225 219.084 197.745 221.039C194.178 221.972 190.56 223.061 186.853 223.216C183.567 223.354 180.523 222.424 177.872 220.469C172.374 216.415 168.001 210.563 164.465 204.79C162.364 201.36 160.531 197.757 159.015 194.031C158.248 192.147 157.552 190.234 156.926 188.298C156.633 187.389 156.354 186.475 156.091 185.557C155.975 185.154 155.863 184.749 155.753 184.343C161.375 182.627 167.063 181.078 172.885 180.218C175.994 179.759 179.143 179.526 182.286 179.56C183.846 179.577 185.405 179.661 186.956 179.822C187.791 179.909 188.623 180.02 189.451 180.159C189.793 180.215 190.145 180.3 190.498 180.362C191.037 182.209 191.58 184.055 192.147 185.894ZM308.353 178.549C308.656 177.936 308.783 177.332 308.892 176.665C308.975 176.156 309.195 175.439 309.002 174.778C308.787 174.038 308.2 173.376 307.778 172.744C307.313 172.046 306.848 171.348 306.383 170.649C305.454 169.252 304.527 167.853 303.602 166.454C299.823 160.739 296.07 155.007 292.311 149.279C288.975 144.196 285.695 139.067 282.258 134.052C279.318 129.764 276.115 125.546 272.091 122.211C267.004 117.994 260.947 116.008 254.619 114.458C253.928 113.74 253.005 113.348 252.019 113.428C250.625 111.846 249.517 110.742 249.015 108.73C248.774 107.767 248.849 105.06 247.912 104.49C246.798 103.813 246.216 104.709 245.909 105.72C244.881 109.099 246.06 113.643 248.775 117.028C247.631 120.982 246.115 126.603 243.41 129.771C240.513 133.163 236.507 134.219 232.184 134.289C223.941 134.421 215.706 131.357 209.419 126.045C207.507 124.431 205.733 122.628 204.127 120.71C202.922 119.271 201.498 117.051 200.556 115.373C200.556 114.719 199.784 114.035 207.641 113.507C215.499 112.978 216.095 102.215 216.27 100.75C216.412 99.5607 217.015 97.7137 216.177 96.7437C215.822 96.3317 215.092 96.2657 214.641 96.5457C213.791 97.0737 213.512 98.4247 213.245 99.3417C212.87 100.626 211.646 108.6 209.327 109.523C208.242 109.955 206.996 109.963 205.848 110.043C204.43 110.143 203.009 110.215 201.596 110.38C201.075 110.441 200.507 110.61 199.993 110.614C199.659 110.618 199.314 110.455 198.99 110.341C197.899 109.955 196.809 110.245 195.685 110.396C185.748 111.732 175.516 114.781 167.04 120.267C159.569 125.103 154.306 132.057 150.833 140.188C147.289 148.487 145.258 157.46 143.556 166.293C142.986 169.253 142.488 172.227 142.06 175.21C141.647 178.093 141.129 181.041 141.006 183.953C140.957 185.105 141.232 186.176 141.656 187.228C142.133 188.413 143.26 188.88 144.342 189.433C146.716 190.648 149.22 191.59 151.8 192.257C153.376 195.126 154.703 198.107 155.769 201.2C155.374 201.984 155.365 203.155 155.289 203.917C155.101 205.814 155.02 207.721 155.003 209.627C154.969 213.447 155.199 217.264 155.379 221.078C155.561 224.946 156.168 240.21 156.267 242.074C156.344 243.522 156.24 245.547 157.003 246.833C158.174 248.809 161.066 248.742 162.406 247.14C195.685 254.297 258.241 252.141 283.436 248.54C286.714 248.072 285.685 248.591 286.518 247.763C287.144 247.141 287.676 246.075 287.849 245.219C288.081 244.076 287.707 243.042 287.053 242.117C286.366 241.145 286.24 239.57 285.985 238.414C285.381 235.681 285.081 223.679 284.798 222.349C284.711 221.934 284.625 221.496 284.523 221.058C289.144 221.496 293.96 221.496 298.356 219.949C300.85 219.072 303.175 217.695 304.965 215.728C307.132 213.347 308.337 210.349 308.958 207.22C309.758 203.185 309.927 199.006 309.77 194.904C309.552 190.057 308.748 185.141 306.753 180.69C307.41 180.08 307.96 179.345 308.353 178.549Z" fill="#111111"/>
<path fill-rule="evenodd" clip-rule="evenodd" d="M194.023 21.4311C195.119 20.2549 196.52 19.3787 198.052 19.0986C196.652 19.7984 195.283 20.5278 194.023 21.4311ZM191.877 31.5725C191.683 30.6762 191.553 29.7712 191.512 28.8664C191.757 29.2388 192.148 29.4876 192.587 29.6161C192.303 30.2516 192.062 30.9064 191.877 31.5725ZM265.191 45.6259C263.926 40.3597 258.026 30.2303 256.631 28.2807C255.117 23.4532 263.376 19.5818 258.884 15.8069C256.851 14.1036 254.163 13.5008 251.642 12.8968C234.185 8.70282 215.429 10.8179 199.238 18.5303C196.776 18.0119 194.21 19.0251 192.419 20.8047C184.005 29.2646 195.471 44.5287 197.979 54.0661C202.28 64.7007 193.419 66.4897 194.369 75.4877C195.108 80.1357 199.814 81.3647 203.786 82.0667C204.422 82.2157 205.273 82.2387 205.478 82.9117C206.122 86.8407 208.328 90.5847 211.29 93.1267C211.031 93.8937 211.228 94.8257 212.142 95.4997C220.417 101.652 230.851 104.731 241.171 104.177C253.471 103.518 259.832 96.4647 261.367 94.6487C269.853 83.1837 268.839 68.0567 267.108 54.3933C265.902 44.875 267.431 54.955 265.191 45.6259Z" fill="#FFFEFC"/>
<path fill-rule="evenodd" clip-rule="evenodd" d="M227.265 1.80542C227.652 0.596518 228.746 -0.130582 229.999 0.0195181C231.108 0.150518 232.295 1.25172 232.16 2.46692C232.135 2.70152 232.101 2.92132 232.061 3.12842L232.066 3.13032L232.071 3.13062L232.044 3.21092C231.961 3.59762 231.847 3.94432 231.678 4.27182C231.463 4.89962 231.256 5.52942 231.051 6.16132C231.347 6.14862 231.649 6.16552 231.955 6.22262C232.272 5.41102 232.591 4.60162 232.908 3.78792C233.248 2.91922 233.487 1.80332 234.159 1.13122C235.018 0.27312 236.51 0.0956172 237.558 0.708517C238.665 1.35522 239.06 2.50502 238.819 3.73712C238.697 4.36562 238.277 4.80302 237.758 5.07792L237.702 5.10672L237.302 6.05352C237.425 6.00072 237.552 5.95212 237.689 5.91192C237.904 5.84852 238.116 5.80842 238.323 5.79152C238.893 4.75802 239.521 3.75402 240.169 2.76912C240.915 1.63632 242.373 1.15442 243.596 1.87092C244.69 2.51132 245.278 4.19362 244.494 5.29902C243.898 6.13812 243.334 6.99402 242.778 7.85852C242.873 7.87542 242.968 7.89652 243.059 7.92402C243.102 7.86692 243.146 7.80992 243.192 7.75282C243.799 7.00042 244.504 6.43612 245.229 5.81052C245.907 5.22292 246.22 4.29932 247.111 3.85342C248.233 3.29332 249.585 3.56172 250.253 4.67762C251.685 7.06802 249.281 8.81382 247.743 10.2615C249.08 9.42672 250.473 8.66372 251.901 8.00432C252.704 7.63442 253.519 7.27732 254.347 6.96872C255.575 6.51222 256.568 6.65822 257.576 7.50762C258.026 7.88812 258.249 8.71892 258.042 9.27242C257.641 10.3334 257.007 10.978 255.896 11.2845C255.114 11.5 254.314 11.6459 253.532 11.872C252.222 12.2482 250.95 12.7068 249.716 13.2796C249.805 13.3346 249.89 13.3937 249.968 13.4614C250.889 13.1634 251.827 12.9055 252.769 12.6857C254.332 12.3191 255.922 12.0715 257.52 11.9166L258.051 11.8671C259.966 11.6833 262.269 11.3439 263.445 13.1782C263.831 13.7826 263.873 14.7802 263.445 15.3783C262.625 16.5281 261.809 16.7563 260.453 16.7774C261.788 16.9191 263.121 17.0945 264.448 17.2995C265.363 17.439 266.277 17.5971 267.188 17.7725L267.642 17.8617C268.752 18.0836 269.99 18.2125 270.942 18.855C273.021 20.2584 272.045 22.9911 269.742 23.2828C268.629 23.4223 267.393 22.951 266.301 22.7312C265.24 22.5177 264.176 22.3296 263.106 22.1648C262.553 22.0781 261.999 22.002 261.444 21.9323C262.574 22.095 263.696 22.3254 264.788 22.6509L265.092 22.7425C267.203 23.3863 270.053 24.4116 270.712 26.6686C271.111 28.0403 270.019 29.2365 268.697 29.3169C267.467 29.3908 266.442 28.6574 265.399 28.1164C264.638 27.7233 263.865 27.4295 263.045 27.178C262.198 26.918 261.334 26.7025 260.464 26.527C261.199 26.9324 261.916 27.378 262.603 27.8765L262.919 28.1101C264.747 29.4725 267.534 31.5818 266.89 34.1356C266.687 34.9409 265.79 35.7102 264.928 35.6278C262.684 35.4185 261.446 33.0282 259.754 31.7474C259.312 31.4135 258.828 31.0837 258.321 30.7625C260.886 33.8228 262.927 37.3608 264.48 41.0151C267.892 49.0544 268.939 56.4995 268.964 65.1437L268.965 65.4117C268.969 70.1797 268.861 75.0337 268.397 79.7807C267.966 84.1667 267.176 88.4947 265.187 92.4667C261.856 99.1257 255.364 104.313 248.204 106.287C240.237 108.485 231.332 106.766 224.806 101.694C223.141 100.401 225.349 97.5917 227.049 98.7857C233.842 103.552 242.626 105.061 250.422 101.836C256.606 99.2777 261.585 93.7767 263.696 87.4427C265.039 83.4127 265.43 79.1157 265.91 74.9167L265.942 74.6367C266.449 70.2447 266.742 65.8237 266.738 61.4019C266.732 53.191 265.553 46.432 261.942 38.984C260.244 35.4756 258.04 32.2316 255.408 29.3845C254.609 29.5472 253.76 29.319 252.953 29.2323C252.541 29.1879 252.129 29.1457 251.717 29.1076C252.138 29.3798 252.551 29.6629 252.956 29.9525L253.488 30.3364C255.154 31.5294 257.266 32.8882 256.838 35.1945C256.722 35.818 256.101 36.3908 255.499 36.5324C253.316 37.0523 251.816 34.9303 250.342 33.6707C249.059 32.5759 247.718 31.5952 246.351 30.6124C246.04 30.3905 245.728 30.1686 245.413 29.9488C245.709 30.2937 245.996 30.6441 246.277 30.9976L246.692 31.5237C247.947 33.0952 249.757 35.1378 248.639 37.1749C248.322 37.7497 247.646 38.1323 246.991 38.1196C244.739 38.0731 243.843 35.5158 242.787 33.901C241.878 32.5167 240.892 31.2127 239.871 29.9086C239.59 29.5515 239.307 29.1943 239.02 28.8371C234.29 29.0823 229.576 29.7079 224.945 30.7075C221.764 31.3944 218.635 32.2844 215.529 33.2585L215.271 33.3407C213.59 33.882 211.858 34.5749 210.647 35.763C210.474 36.5816 210.606 37.445 210.772 38.2625L210.901 38.8883C211.432 41.5049 211.794 44.0731 211.523 46.7596C211.242 49.5304 210.408 52.0222 209.39 54.5965C208.908 55.8096 208.409 55.5898 208.238 56.8917C208.107 57.8834 208.188 58.9071 208.278 59.9071L208.353 60.7548C208.54 62.9757 208.635 65.3967 207.18 67.2287C206.954 67.5097 206.47 67.3977 206.309 67.1167C206.246 67.0047 206.178 66.8967 206.104 66.7937C205.403 65.7767 204.328 65.1977 203.098 64.9737C202.942 64.9467 203.003 64.7367 203.134 64.7197C204.173 64.5977 205.158 64.8577 205.995 65.3947C205.598 64.0217 202.526 64.6897 201.517 64.9557L201.482 64.9657C200.223 65.3037 199.031 65.8527 197.981 66.6307C195.869 68.1947 194.648 70.6337 194.709 73.2607C194.77 75.8437 196.103 78.2297 198.393 79.4657C199.498 80.0617 200.755 80.3497 202.006 80.3367C203.311 80.3237 204.473 79.7517 205.781 79.8317C206.537 79.8777 207.116 80.6897 206.679 81.3977C206.387 81.8717 206.007 82.2427 205.568 82.5287C206.639 84.9997 208.006 87.3557 209.582 89.5307C210.454 90.7377 211.443 91.8507 212.531 92.8677C213.38 93.6627 215.221 94.5817 215.117 95.9067C215.081 96.3847 214.834 96.6767 214.399 96.8537C213.046 97.4077 211.4 95.5017 210.495 94.5827L210.423 94.5097C209.295 93.3857 208.266 92.1427 207.37 90.8237C205.781 88.4827 204.795 85.8427 204.387 83.0697C202.217 83.7227 199.344 83.1097 197.574 82.3087C192.009 79.7937 190.19 72.2967 193.572 67.3047C194.227 66.3387 195.047 65.5127 195.981 64.8447C195.776 64.7327 195.584 64.5887 195.412 64.4077C194.466 63.4017 193.797 62.0887 193.132 60.8788L193.053 60.7341C192.463 59.6689 191.907 58.587 191.385 57.4884L191.191 57.0756C190.027 54.5711 189.007 53.4763 188.177 50.8429C187.378 48.3025 186.748 45.7134 186.341 43.08L186.232 42.3829C185.996 40.8549 185.773 39.2209 185.946 37.6694C184.76 38.0562 183.569 38.295 182.396 37.7138C181.623 37.3313 181.196 36.2153 181.46 35.4143C181.653 34.8246 181.974 34.3618 182.382 33.9983C182.139 33.8757 181.91 33.7193 181.71 33.546L181.534 33.394C180.824 32.7767 180.774 31.6037 181.205 30.8301C181.247 30.7562 181.289 30.6801 181.329 30.6061C181.739 29.8727 182.586 29.3929 183.423 29.4056C183.558 29.4077 183.693 29.4077 183.831 29.4056C183.44 29.319 183.058 29.1858 182.694 28.9618C181.055 27.9536 181.262 25.2209 183.246 24.739C184.078 24.5382 184.997 24.6207 185.914 24.8362C185.88 24.8172 185.846 24.7982 185.812 24.7771C185.12 24.3522 184.539 23.5216 184.604 22.6699C184.676 21.7273 184.98 21.0552 185.812 20.5606C186.535 20.1337 187.558 20.0935 188.276 20.5606C188.899 20.9685 189.51 21.4187 190.097 21.9027C189.508 21.1778 188.996 20.3894 188.789 19.5525C188.534 18.5105 188.96 17.3756 189.898 16.8261C190.646 16.3886 191.436 16.4372 192.142 16.7753C192.104 16.2279 192.237 15.67 192.601 15.1754C193.344 14.1611 194.696 13.5776 195.873 14.3173C196.027 14.4146 196.234 14.5815 196.435 14.7865C196.044 13.5417 196.397 12.2355 197.73 11.6733C198.543 11.3288 199.644 11.5021 200.35 12.096C199.902 9.67182 203.478 7.89022 204.868 10.3947C205.184 10.962 205.496 11.5594 205.775 12.1706L205.878 12.4004L205.889 12.3962L205.818 12.2281L205.745 12.0601C205.359 11.1619 204.866 10.2277 204.731 9.25342C204.533 7.81202 205.175 6.44452 206.742 6.23322C207.552 6.12332 208.452 6.49102 208.995 7.13372C208.701 4.89742 211.198 3.27222 212.996 4.94182C213.847 5.73232 214.302 6.88842 214.842 7.90282C215.149 8.47562 215.461 9.04632 215.768 9.62112C215.846 9.52812 215.93 9.43512 216.019 9.34432C215.565 7.98322 215.212 6.58822 214.914 5.18492C214.631 3.86182 215.292 2.48812 216.657 2.11422C217.897 1.77162 219.45 2.53692 219.727 3.85782C219.921 4.78752 220.152 5.70712 220.405 6.62212C220.578 6.57982 220.749 6.55022 220.918 6.52912C220.933 6.35722 220.949 6.18432 220.966 6.01242L221.033 5.40112C221.181 4.00422 221.33 2.40952 222.059 1.22212C223.304 -0.806883 226.494 0.0343192 226.528 2.43312C226.547 3.67372 226.042 4.90382 225.866 6.13172C225.79 6.66642 225.746 7.20752 225.721 7.74862C226.061 5.95212 226.528 4.17892 227.068 2.43312C227.132 2.22392 227.199 2.01462 227.265 1.80542ZM199.742 71.0817C202.541 70.6487 205.099 72.2107 206.758 74.3977C207.06 74.7977 206.861 75.3617 206.589 75.6977C206.392 75.9447 206.128 75.9747 205.83 76.0127C205.488 76.0567 205.055 75.7797 204.905 75.4817C203.838 73.3517 201.935 72.0057 199.742 71.1767C199.702 71.1617 199.689 71.0907 199.742 71.0817ZM203.621 32.911L203.706 32.82C204.272 32.2322 203.377 31.3344 202.809 31.9234C202.212 32.5435 201.814 33.2968 201.432 34.0602C201.069 34.7881 202.161 35.431 202.527 34.7004L202.693 34.3683C202.955 33.8519 203.233 33.3418 203.621 32.911ZM195.761 31.7047C196.564 31.5694 196.223 30.3472 195.424 30.4821C194.388 30.6566 193.357 30.8551 192.321 31.0299C191.518 31.1651 191.858 32.3874 192.658 32.2527C193.694 32.0779 194.725 31.8795 195.761 31.7047ZM243.584 23.3604C242.809 23.1015 242.476 24.3258 243.247 24.5833C244.313 24.939 245.37 25.3035 246.382 25.7975C247.112 26.1542 247.755 25.0609 247.021 24.7025C245.912 24.1603 244.754 23.751 243.584 23.3604ZM195.578 21.7169C194.82 21.4138 194.491 22.6399 195.241 22.9398L197.979 24.0352C198.736 24.3383 199.065 23.1125 198.316 22.8126L195.578 21.7169ZM253.145 18.7395L253.045 18.6764C252.358 18.2313 251.722 19.3287 252.405 19.7714C252.806 20.0312 253.293 20.2074 253.66 20.5169L253.737 20.5854C254.33 21.1454 255.228 20.2506 254.633 19.6886C254.198 19.2778 253.648 19.0491 253.145 18.7395Z" fill="#111111"/>
<path fill-rule="evenodd" clip-rule="evenodd" d="M232.115 84.6017C234.702 81.5937 239.06 81.3847 242.669 82.1367C244.985 82.6197 247.241 83.4237 249.593 83.7217C250.692 83.8607 251.803 83.9017 252.91 83.8817C253.997 83.8617 255.086 83.6427 256.169 83.6827C256.336 83.6897 256.399 83.9077 256.254 83.9967C254.768 84.9107 252.766 85.2037 251.01 85.3817C251.016 85.5117 251.023 85.6387 251.041 85.7457C251.089 86.0327 251.133 86.3177 251.168 86.6067C251.248 87.2577 251.337 87.9067 251.426 88.5567C251.602 89.8357 251.657 91.1557 251.965 92.4117L252.019 92.6207C252.09 92.8847 252.106 93.1237 252.083 93.3377L252.154 93.3057L252.38 93.1967L252.527 93.1267C253.067 92.8767 253.582 92.6937 254.216 92.7547C254.699 92.8007 255.105 93.1307 255.108 93.6467C255.12 95.9617 252 96.7067 250.216 97.1497L249.693 97.2787C247.422 97.8327 245.103 98.3187 242.768 98.4347C239.019 98.6207 234.807 97.5867 232.355 94.5447C230.067 91.7067 229.648 87.4687 232.115 84.6017ZM249.137 94.3297C248.744 90.8437 244.461 90.6517 243.23 92.8627C242.683 89.7817 234.597 92.5967 235.229 93.2087C237.625 95.5307 241.262 95.7397 244.389 95.3107C245.981 95.0917 247.575 94.7357 249.137 94.3297ZM244.385 85.1927L243.308 85.0377L242.884 84.9797C240.216 84.6217 237.214 84.4377 235.02 86.1487C234.219 86.7737 233.768 87.5887 233.6 88.4637C235.676 88.1567 237.76 87.9217 239.85 87.7257L240.42 87.6737C241.728 87.5557 243.035 87.4317 244.341 87.3007L245.27 87.2067L246.198 87.1107C246.524 87.0767 248.726 86.9637 249.14 87.0397C249.184 86.6677 249.241 85.8627 249.335 85.4997C247.771 85.5537 246.214 85.4367 244.659 85.2307L244.385 85.1927ZM249.341 69.6117C250.936 70.5817 253.367 72.8447 251.651 75.2497C249.63 77.3697 246.722 74.9387 245.288 73.8387C243.959 72.9867 242.466 75.1787 243.699 76.1737C254.056 83.8447 258.26 69.8657 250.147 68.4717C249.254 68.3177 248.923 69.3117 249.341 69.6117ZM252.195 73.6987L252.272 73.6567L252.298 73.6417C252.343 73.6127 252.314 73.6157 252.212 73.6507L252.136 73.6787V73.7327C252.155 73.7207 252.176 73.7117 252.195 73.6987ZM231.763 65.0797V65.0327C231.766 63.6847 232.551 60.6075 234.49 60.6075C235.702 60.6075 236.437 62.7017 236.565 64.8607L236.569 64.9487C236.625 66.2907 236.257 69.2247 234.49 69.2247C232.704 69.2247 231.782 66.4457 231.763 65.0797ZM260.317 64.6577L260.318 64.6097C260.315 63.2617 259.53 60.1848 257.591 60.1848C256.409 60.1848 255.681 62.1757 255.527 64.2757L255.516 64.4377C255.44 65.7347 255.784 68.8017 257.591 68.8017C259.376 68.8017 260.299 66.0227 260.317 64.6577ZM232.87 51.4185C234.453 51.1777 236.549 51.6351 237.287 53.2452C237.615 53.9625 237.226 54.7557 236.397 54.7954C234.394 54.8914 232.598 54.4454 230.84 55.7484C230.083 56.3093 229.447 57.0858 228.913 57.8604L228.711 58.1551L228.544 58.398C228.181 58.9311 227.838 59.5103 227.892 60.1536C227.907 60.344 227.713 60.5247 227.528 60.5171C226.376 60.4698 226.252 59.0246 226.403 58.1565C226.685 56.5456 227.464 55.0334 228.545 53.8154C229.679 52.5363 231.177 51.6761 232.87 51.4185ZM254.671 53.3736C255.762 52.6717 257.158 52.402 258.437 52.5054C260.958 52.7085 265.187 54.8524 264.63 57.9328C264.459 58.8829 263.138 59.3842 262.36 58.8571C261.523 58.2904 261.319 57.4098 260.696 56.6692C260.199 56.0776 259.57 55.6496 258.895 55.285C258.23 54.9254 257.462 54.7075 256.707 54.6281L256.582 54.6161C256.128 54.5774 253.835 54.5878 254.171 55.444C254.237 55.6116 253.988 55.7443 253.874 55.6175C253.171 54.8397 253.967 53.8263 254.671 53.3736Z" fill="#111111"/>
</svg>
