<svg width="35" height="35" viewBox="0 0 35 35" fill="none" xmlns="http://www.w3.org/2000/svg">
<path opacity="0.3" d="M17.5 5.83333C15.3739 5.83718 13.3361 6.68347 11.8327 8.18683C10.3293 9.6902 9.48304 11.7281 9.47919 13.8542C9.47919 17.4562 11.6521 19.5271 12.9063 20.4167H22.0938C23.3479 19.5271 25.5209 17.4562 25.5209 13.8542C25.5209 9.43541 21.9188 5.83333 17.5 5.83333Z" fill="#CF534A"/>
<path d="M17.5 32.0833C19.1042 32.0833 20.4167 30.7708 20.4167 29.1667H14.5833C14.5833 30.7708 15.8958 32.0833 17.5 32.0833ZM11.6667 24.7917H23.3333V27.7083H11.6667V24.7917ZM17.5 2.91667C11.4625 2.91667 6.5625 7.81667 6.5625 13.8542C6.5625 19.425 10.4417 22.4 12.0604 23.3333H22.9396C24.5583 22.4 28.4375 19.425 28.4375 13.8542C28.4375 7.81667 23.5375 2.91667 17.5 2.91667ZM22.0938 20.4167H12.9063C11.6521 19.5271 9.47917 17.4563 9.47917 13.8542C9.47917 9.43542 13.0813 5.83334 17.5 5.83334C21.9188 5.83334 25.5208 9.43542 25.5208 13.8542C25.5208 17.4563 23.3479 19.5271 22.0938 20.4167Z" fill="#111111"/>
</svg>
